<?xml version="1.0" standalone="no"?>
<!DOCTYPE svg PUBLIC "-//W3C//DTD SVG 1.1//EN" "http://www.w3.org/Graphics/SVG/1.1/DTD/svg11.dtd" >
<svg xmlns="http://www.w3.org/2000/svg" xmlns:xlink="http://www.w3.org/1999/xlink" version="1.1">
<metadata></metadata>
<defs>
<font id="tf2secondary" horiz-adv-x="1198" >
<font-face units-per-em="2048" ascent="1536" descent="-512" />
<missing-glyph horiz-adv-x="700" />
<glyph horiz-adv-x="0" />
<glyph unicode="&#xd;" horiz-adv-x="819" />
<glyph unicode=" "  horiz-adv-x="700" />
<glyph unicode="&#x09;" horiz-adv-x="700" />
<glyph unicode="&#xa0;" horiz-adv-x="700" />
<glyph unicode="!" horiz-adv-x="411" d="M47 115q-4 43 13.5 76.5t52.5 39.5t63.5 -17.5t32.5 -63.5q8 -41 -10.5 -74t-53.5 -41t-61.5 15.5t-36.5 64.5zM78 377l55 1122l180 -22l-147 -1117z" />
<glyph unicode="&#x22;" horiz-adv-x="458" d="M8 1391l154 8v-383h-82zM199 1436l147 -37l-41 -312h-82z" />
<glyph unicode="#" horiz-adv-x="819" d="M0 821v97l203 4l-13 206l86 -8v-198l234 4l22 145l86 -6l-26 -137h141l-12 -60l-135 -8l-19 -123l121 8l-10 -86h-127l-41 -217l-66 2l29 211l-188 -2l6 -221l-66 -6l-14 225l-176 -14l8 96l164 2l-4 101zM279 838l4 -103l202 8l11 109z" />
<glyph unicode="$" horiz-adv-x="559" d="M0 870q-8 76 33 143.5t135 108.5v160h111l-7 -131q12 2 33 5t39 5h45l-8 -100h-57q-41 -6 -52 -8l-16 -265q37 -8 75 -19t71.5 -42t53 -67.5t17.5 -112.5q-23 -94 -89.5 -157.5t-143.5 -82.5l-13 -143l-59 -6l6 131q-45 -8 -98 -13q-23 -2 -41 -2l2 132q23 -6 64.5 -10.5 t74.5 1.5l-6 336q-31 12 -61.5 24.5t-55 31t-39 38t-14.5 43.5zM102 885q0 -16 18.5 -38t49.5 -32l-2 203q-27 -23 -46.5 -54.5t-19.5 -78.5zM242 412q61 23 79.5 47t30 44.5t15.5 55.5q4 55 -30 92t-83 47z" />
<glyph unicode="%" horiz-adv-x="780" d="M31.5 962q11.5 42 55.5 77.5t114 33.5q43 0 64.5 -33.5t16 -74.5t-37 -76t-92.5 -37q-74 -2 -103 33t-17.5 77zM92 929.5q8 -18.5 45 -24.5q35 -6 55.5 7.5t26.5 33t-3 38t-34 22.5q-29 4 -52.5 -8.5t-34.5 -31t-3 -37zM109 285l448 886l59 -24l-405 -899zM407.5 539 q6.5 43 28 79.5t53 60t74.5 23.5q63 0 92 -51t24 -113.5t-44 -113.5t-111 -51q-49 0 -76.5 24.5t-37 61.5t-3 80zM460 531.5q-7 -31.5 9 -58.5t63 -27q45 2 71 32t31 66t-12.5 62.5t-58.5 22.5q-41 -6 -68.5 -36t-34.5 -61.5z" />
<glyph unicode="&#x26;" horiz-adv-x="962" d="M0 387q0 37 24.5 92.5t62.5 117.5t81 128t79 125t60.5 105t22.5 73q0 37 -17.5 61.5t-42 37t-55.5 12.5t-59 -11q-31 -80 9 -174t118.5 -189t179 -183t189.5 -156t149.5 -108.5t60.5 -38.5l-117 -146q-195 166 -350 336q-66 72 -130 151.5t-114.5 160.5t-83 161 t-34.5 154q0 68 18.5 103.5t40 52t41 18.5t21.5 2q6 2 35.5 -5t68.5 -27.5t80 -54.5t65 -85q18 -41 7 -89t-38.5 -103.5t-66.5 -117t-74.5 -127t-62.5 -135t-31 -141.5q6 -53 23.5 -88t42 -55.5t57.5 -28.5t70 -8t90 20.5t103 71.5t86 140t38 227h-147l-6 92l276 -10 q6 -174 -37 -312q-18 -59 -50 -114.5t-80 -99.5t-115.5 -69.5t-159.5 -25.5t-155.5 19.5t-101.5 54.5t-54.5 83t-16.5 103z" />
<glyph unicode="'" horiz-adv-x="274" d="M51 1108v432l172 -6l-82 -426h-90z" />
<glyph unicode="(" horiz-adv-x="555" d="M29.5 597q7.5 103 40 215t82 220.5t98.5 195.5t87 143t46 63l55 -39q-84 -127 -147 -265q-27 -59 -52.5 -124.5t-43 -134t-25.5 -139t-2 -138.5q10 -121 56 -210t98 -148q59 -70 131 -119l-74 -117q-53 41 -109 100q-47 51 -103 129t-108 187q-37 78 -29.5 181z" />
<glyph unicode=")" horiz-adv-x="532" d="M0 1327l74 117q53 -41 108 -101q47 -51 102.5 -128.5t108.5 -186.5q37 -78 30 -181.5t-40 -215t-82 -220t-98 -195.5t-87 -143.5t-46 -62.5l-56 39q84 127 148 264q27 57 51.5 123t42.5 135.5t26.5 140t2.5 138.5q-12 119 -57.5 209t-96.5 149q-59 70 -131 119z" />
<glyph unicode="*" horiz-adv-x="655" d="M6 1192l242 80l-144 182l41 29l142 -150l55 205l86 -39l-86 -190l164 51l20 -29l-174 -80l195 -190l-92 -66l-146 201l-96 -201l-33 19l56 190l-211 -78z" />
<glyph unicode="+" horiz-adv-x="606" d="M0 637l12 76h228l-4 233h86l-5 -233l207 2l-4 -82l-203 4l-8 -293h-63l-6 293h-240z" />
<glyph unicode="," horiz-adv-x="243" d="M4 -197v453l180 -10l-84 -443h-96z" />
<glyph unicode="-" horiz-adv-x="585" d="M0 766l475 39l-8 -131l-459 16z" />
<glyph unicode="." horiz-adv-x="307" d="M6 100.5q-8 46.5 19 92.5q27 39 75 47t93 -17q39 -31 47 -78t-17 -92q-27 -39 -76 -47t-94 19q-39 29 -47 75.5z" />
<glyph unicode="/" horiz-adv-x="716" d="M0 154l465 1214l149 -25l-532 -1218z" />
<glyph unicode="0" horiz-adv-x="1077" d="M6 741q-2 117 16.5 203t51 149.5t73.5 104.5t84 68q100 59 232 59q6 0 45 -2t94 -17.5t118.5 -50t120 -101.5t98.5 -172t52 -259q10 -141 -11.5 -241.5t-61 -167t-91 -104.5t-102.5 -56.5t-94 -23.5t-64 -5q-12 0 -54 4t-99.5 23.5t-122 58.5t-122.5 107.5t-103.5 172 t-59.5 250.5zM182 817q-2 -170 46 -287.5t116 -192.5t137.5 -108.5t110.5 -33.5q39 0 81 22.5t78.5 74.5t62.5 137t30 210q4 127 -22.5 236.5t-78 191.5t-122 128t-152.5 48q-80 0 -143 -45q-27 -18 -52.5 -49t-46 -77t-33 -108.5t-12.5 -146.5z" />
<glyph unicode="1" horiz-adv-x="364" d="M68 131l36 1192l111 4l39 -1196h-186z" />
<glyph unicode="2" horiz-adv-x="1036" d="M0 1214q43 27 119 53.5t167 42t188 15.5t182 -25.5t146.5 -82t84.5 -152.5q14 -74 3 -147.5t-42 -146.5t-75 -140.5t-93 -126.5q-113 -141 -268 -273l518 17l4 -119q-219 -2 -391 -2h-143.5h-125t-88.5 1l-34 1q68 55 136 127t126.5 144.5t175.5 230.5q29 39 55.5 91 t41.5 109.5t15 116t-22.5 106.5t-71.5 80.5t-131 41.5q-90 12 -156.5 -1.5t-113.5 -37t-77 -48t-46 -34.5q-2 -1 -84 159z" />
<glyph unicode="3" horiz-adv-x="952" d="M0 1278q88 31 185.5 43t191.5 10t181 -19.5t152.5 -49t104.5 -74.5t39 -98q4 -70 -17.5 -122.5t-56.5 -91t-76.5 -65.5t-77.5 -43t-59.5 -23.5t-23.5 -9.5q0 2 37.5 -12t84 -48t87.5 -88.5t49 -133.5q0 -70 -31 -120t-82 -84t-116.5 -53.5t-133.5 -29.5q-160 -23 -366 -8 v100q147 -16 260 -2q49 6 95 19.5t82 37t58.5 59.5t22.5 89q0 43 -17.5 74.5t-44 54t-61.5 36t-70 19.5q-84 16 -190 8q-4 115 0 117q2 2 34.5 2t82 5t105.5 20.5t104.5 45t79 80t30.5 126.5q-2 76 -43 115.5t-103.5 54t-136 7.5t-140 -24.5t-179.5 -85.5q-2 12 -41 162z " />
<glyph unicode="4" horiz-adv-x="1056" d="M0 481l616 842l80 6l33 -704l223 14l2 -154l-217 4l-2 -4l15 -366l-172 -17l-11 383zM217 602l342 16l-4 467z" />
<glyph unicode="5" horiz-adv-x="851" d="M0 682l4 588l719 59v-164l-567 4l2 -354q33 2 87 3t116.5 -4t128 -18.5t120 -42t91 -73.5t42.5 -115q6 -53 -15 -100t-60 -87t-90.5 -75t-106.5 -63q-127 -68 -295 -117l-51 119q119 33 213 80q39 18 78 42.5t68.5 53t47 62.5t15.5 71t-26.5 62.5t-62.5 42t-87 24.5 t-101 12q-119 8 -270 -10z" />
<glyph unicode="6" horiz-adv-x="788" d="M4 512v4q-2 37 3 94.5t24.5 128t55.5 149.5t94.5 157.5t143.5 153.5t201 136q70 -139 68 -141q-106 -57 -180 -121.5t-123 -130t-79 -130t-46 -120.5q41 16 72.5 26.5t83.5 16.5t81 4q27 0 75 -11t94 -43t80 -92.5t34 -160.5q0 -104 -46 -165.5t-107.5 -93.5t-122 -40 t-91.5 -6q-25 0 -78 13.5t-106 53t-93 115.5t-38 203zM166 432q-2 -23 7 -60.5t28.5 -73.5t48 -62.5t65.5 -28.5q70 -6 118 21.5t75 73.5t34 102.5t-6.5 106.5t-45 87t-80.5 45q-76 10 -123 -10.5t-73 -55t-36 -75.5t-12 -70z" />
<glyph unicode="7" horiz-adv-x="974" d="M4 1309l866 32l-92 -1214h-160l125 1073l-708 -65z" />
<glyph unicode="8" horiz-adv-x="1001" d="M10.5 489.5q18.5 67.5 82 132t183.5 111.5q-78 23 -125 73t-64 112.5t-5 129t54 123t111.5 94.5t170.5 44q80 6 142.5 -18.5t105.5 -66.5t65.5 -98.5t21.5 -115t-26 -114.5t-76 -97q113 -8 174.5 -61.5t74.5 -126t-15.5 -156.5t-95 -155t-167 -120t-227.5 -51 q-94 -2 -173 28.5t-132 82t-75.5 117t-4 133zM206 467q-9 -61 13.5 -114.5t79 -89.5t150.5 -36q90 0 151.5 37t93 91.5t35.5 118t-20.5 117.5t-79 89t-137.5 33q-82 -2 -143.5 -39t-97.5 -91.5t-45 -115.5zM240 1000.5q0 -58.5 20.5 -105.5t62.5 -78t105 -24q61 4 100 37.5 t57.5 80.5t17.5 102.5t-21.5 101.5t-58.5 77t-91 31q-63 2 -106 -32t-64.5 -83t-21.5 -107.5z" />
<glyph unicode="9" horiz-adv-x="808" d="M8 948q-10 80 2.5 154t50 130t103 90t164.5 34q70 -4 110.5 -17.5t86.5 -41t85 -78t66 -128t29 -190.5q0 -86 -21.5 -165t-56.5 -150.5t-81 -134t-93 -115.5q-113 -125 -256 -225l-97 131q117 80 209 161q39 35 77 75t67.5 82t48 84t20.5 83q-119 -49 -212 -37t-158.5 55 t-101.5 101.5t-42 101.5zM135 1078q-6 -52 10.5 -109.5t53.5 -101.5t94 -66t133 -6q55 10 83 51t31 95t-15.5 111.5t-56.5 101.5t-92 66.5t-124 6.5q-53 -12 -82 -54.5t-35 -94.5z" />
<glyph unicode=":" horiz-adv-x="352" d="M7 329q-7 50 16 93q29 39 73.5 47t85.5 -23q35 -29 43 -78t-14 -92q-27 -39 -72 -47t-84 23q-41 27 -48 77zM41 1021q-6 42 14 83q25 33 64 41t74 -12q37 -29 42 -71t-18 -83q-23 -39 -63.5 -44t-71.5 15q-35 29 -41 71z" />
<glyph unicode=";" horiz-adv-x="329" d="M7 1016.5q-7 42.5 20 79.5q20 39 63 44t78 -20t44 -65.5t-13 -75.5q-25 -39 -68 -46.5t-84 21.5q-33 20 -40 62.5zM45 -53v356l143 -6l-67 -350h-76z" />
<glyph unicode="&#x3c;" horiz-adv-x="669" d="M-2 743l508 310l57 -127l-444 -191l348 -272l-37 -80z" />
<glyph unicode="=" horiz-adv-x="858" d="M2 621l729 32v-155l-721 30zM25 752l8 161l712 -100l9 -90z" />
<glyph unicode="&#x3e;" horiz-adv-x="684" d="M-2 936l59 131l531 -322l-451 -374l-39 84l365 282z" />
<glyph unicode="?" horiz-adv-x="942" d="M2 1343q43 25 112.5 46.5t152.5 33t170 6t165 -35t137 -87t88 -153.5q18 -72 5 -129t-48.5 -104.5t-87 -83t-108.5 -62.5q-133 -63 -318 -98l31 -328l-100 -4v414q162 23 276 71q49 20 92 49t71 66t34 84t-19 105q-23 53 -60.5 83.5t-83.5 43t-97.5 10.5t-100.5 -10 q-117 -23 -247 -86zM167.5 102q0.5 39 25.5 74q29 39 64 51.5t60 -12.5q25 -16 25 -56t-25 -73q-29 -37 -64.5 -51.5t-62.5 12.5q-23 16 -22.5 55z" />
<glyph unicode="@" horiz-adv-x="1228" d="M4 743q2 131 41 227.5t98.5 161t131 103.5t127 54.5t122 23.5t183.5 -4q113 -27 176 -58.5t117.5 -86t89 -135.5t34.5 -200q-8 -98 -38.5 -151t-69.5 -81t-70 -34t-39 -6q8 -2 -4 -4t-35.5 4t-54.5 21.5t-55 48.5q-6 -20 -25.5 -39t-38 -36t-50.5 -27.5t-81 -10.5 q-39 0 -81 23.5t-74.5 64.5t-47 99.5t4.5 127.5q6 37 27.5 81t57 83t86 64.5t117.5 23.5q63 -4 94 -37.5t45.5 -82t18.5 -103.5t12 -100t24.5 -77t59.5 -28q47 0 79 42t40 103.5t-7 134.5t-62.5 136.5t-129.5 107.5t-204 48q-109 4 -186 -27t-127 -79t-79.5 -106.5 t-44 -112.5t-19.5 -96t-5 -52q-2 -43 11 -103.5t43 -121t80 -113t125 -80t176 -25.5t234 56l46 -113q-27 -16 -101 -34.5t-171 -20.5t-201.5 18.5t-193.5 79.5t-146.5 167.5t-59.5 280.5zM480 732q7 -44 31 -76t67 -42q37 -8 66.5 18.5t47 69.5t23.5 95.5t-2 97.5 t-29.5 74.5t-60.5 29.5q-37 2 -66 -22.5t-47 -64.5t-27.5 -88t-2.5 -92z" />
<glyph unicode="A" horiz-adv-x="1290" d="M10 39l465 1384l103 4l632 -1355l-159 -64l-539 1221l-168 -555l432 6l35 -88l-485 -2l-195 -590z" />
<glyph unicode="B" horiz-adv-x="1044" d="M0 16v1387q10 6 74 15q65 8 153 14q32 2 66 3q59 -1 123 -7q102 -10 188 -45t143.5 -96.5t59.5 -160.5q0 -98 -37 -155.5t-80 -85.5q-51 -35 -115 -43q98 -16 179 -62q33 -18 65.5 -45.5t59 -65.5t43 -86.5t18.5 -109.5q0 -5 1 -10q0 -89 -37 -155q-38 -70 -103.5 -119.5 t-150.5 -82t-173 -51.5q-184 -40 -415 -40q-30 0 -62 1zM121 1315l6 -432q46 -4 89 -5q80 0 153 15q49 8 96 25.5t85 45t63.5 67.5t29.5 95q1 11 1 21q0 63 -32 100q-37 43 -96 64.5t-129 25.5q-31 2 -60 2q-37 0 -71 -3q-61 -5 -97 -12t-38 -9zM123 760l12 -565 q43 -3 119 -5q10 0 21 -1q67 1 133 9q78 10 151.5 32t128.5 63t84 105q22 48 22 112q0 22 -3 45q-12 74 -64.5 118t-128.5 66.5t-161 28.5q-64 4 -121 4h-38q-74 -2 -114 -7z" />
<glyph unicode="C" horiz-adv-x="1267" d="M8 588q-6 46 -6 98q0 131 41 295q39 119 108.5 199t155.5 131t183.5 76.5t193.5 35.5q69 7 142 7q162 0 341 -35v-181q-185 41 -347 41q-53 0 -103 -4q-88 -8 -176 -32.5t-164 -74.5t-134.5 -130t-84.5 -199q-14 -67 -18 -149v-22q0 -71 20 -142q24 -82 80.5 -156 t161 -127t262.5 -77q85 -13 190 -13q89 0 193 10l12 -57q4 -23 7 -41t1 -21q-87 -10 -190 -10q-26 0 -52 1q-133 3 -266 34t-253 94.5t-198 174t-100 274.5z" />
<glyph unicode="D" horiz-adv-x="1492" d="M0 2v1348q142 12 274 12q239 0 443 -39q135 -25 264 -74t230.5 -130t164 -198.5t64.5 -283.5q-8 -154 -74 -262.5t-169 -182t-231 -116.5t-261 -64q-172 -28 -370 -28q-159 0 -335 18zM176 109q83 -6 165 -6q180 0 353 30q106 18 200.5 54t170.5 93.5t109.5 141.5 t46.5 201q-6 125 -41 215t-102.5 151.5t-158 99t-198.5 58.5q-171 32 -350 32q-88 0 -178 -8z" />
<glyph unicode="E" horiz-adv-x="894" d="M0 0v1413l842 19v-179l-723 7l6 -490l594 35l2 -154l-588 -10l6 -535l668 31l4 -137h-811z" />
<glyph unicode="F" horiz-adv-x="821" d="M0 18l18 1414l721 -5v-127l-616 23l12 -451l479 19l-4 -172l-463 16l25 -737l-170 6z" />
<glyph unicode="G" horiz-adv-x="1312" d="M12 758q20 162 82 275.5t150 188t193.5 117.5t211.5 62q115 21 242 21q149 0 315 -29l-6 -107q-130 17 -247 17q-143 0 -265 -25q-96 -18 -186 -57t-161 -105.5t-113 -165.5q-38 -89 -38 -213v-24q0 -147 38 -247.5t101.5 -165t143.5 -96.5t164 -44q58 -8 122 -8 q149 0 326 45l-6 204l-430 -26l4 141l541 -2v-459q-230 -49 -424 -49q-105 0 -199 14q-115 18 -222 63.5t-187 130.5t-123 218q-31 97 -31 226q0 48 4 100z" />
<glyph unicode="H" horiz-adv-x="1392" d="M0 0v1434l156 -9l14 -862l907 19l-8 839h121l39 -1394l-146 -2l-6 411l-903 -4l6 -432h-180z" />
<glyph unicode="I" horiz-adv-x="491" d="M109 2l43 1432l165 -2l-75 -1432z" />
<glyph unicode="J" horiz-adv-x="1044" d="M0 147q0 4 63 95q51 -45 119 -80q57 -29 137 -50q55 -15 120 -15q30 0 63 3q78 6 131 61.5t86 151t38 225.5q2 43 2 89q0 93 -7 196l-60 604l191 3q2 -53 6 -119q8 -205 8 -291q4 -129 4 -253q0 -62 -1 -123q-3 -183 -50 -326.5t-141.5 -230.5t-255.5 -87 q-78 0 -150 14.5t-131 37t-103 48t-69 47.5z" />
<glyph unicode="K" horiz-adv-x="1083" d="M0 1427l137 5v-590l649 573l115 -129l-676 -524l774 -553l-100 -156l-749 629l12 -674l-125 -6z" />
<glyph unicode="L" horiz-adv-x="1130" d="M41 1430l149 -9l-6 -1284l830 62l-4 -193l-967 -6z" />
<glyph unicode="M" horiz-adv-x="1562" d="M41 0v1434h92l596 -1205l518 1196h150l47 -1409h-187l-6 1139l-499 -1161l-74 16l-531 1102l37 -1114z" />
<glyph unicode="N" horiz-adv-x="1533" d="M41 0v1434h92l1155 -1198l-12 1185l147 -6l-6 -1395l-117 -2l-1138 1153l16 -1171h-137z" />
<glyph unicode="O" horiz-adv-x="1740" d="M8 715q10 152 59.5 265.5t123 195t156.5 134t172 84.5t172 44q71 10 131 10h20q66 0 146.5 -11.5t167.5 -41t166 -79.5t150.5 -130t117.5 -196t48 -269q-6 -211 -85.5 -350.5t-199.5 -226.5t-264.5 -124.5t-277.5 -37.5q-72 0 -162 10t-182 43t-175 90t-150.5 138 t-104.5 185q-30 85 -30 211q0 27 1 56zM197 633q4 -143 61 -247.5t134 -170t187.5 -98.5t223.5 -37h12q109 0 225 34q122 36 210 112t154 216q61 128 60 311v33q-10 119 -51 213.5t-85 150.5t-108.5 98t-126 66.5t-194.5 39.5q-19 1 -38 1q-116 0 -227 -32 q-130 -37 -234 -137q-103 -102 -155 -250q-48 -138 -48 -281v-22z" />
<glyph unicode="P" horiz-adv-x="1081" d="M16 1421q60 1 156 7q58 3 122 4q40 0 82 -2q108 -4 215 -18.5t194 -53.5t144.5 -109t65.5 -172q1 -16 1 -32q0 -99 -44 -171q-51 -82 -126.5 -138t-169 -87t-182.5 -47t-166 -19t-118 -3l-2 -580h-133zM174 1292l16 -575q32 -1 63 -1q155 0 282 25q63 12 109 34t83 55.5 t65.5 82t28.5 113.5q0 70 -27.5 118t-66.5 79.5t-85 49t-114 25.5t-142 8q-100 0 -212 -14z" />
<glyph unicode="Q" horiz-adv-x="1536" d="M-4 786q6 156 47 264.5t108.5 182.5t149.5 119t155.5 65.5t129 26.5t71.5 8q27 0 91.5 -1t147.5 -16.5t173 -54.5t168 -111.5t139.5 -188t69.5 -287.5v-28q0 -135 -35 -225q-39 -98 -100.5 -172.5t-136 -126t-142.5 -83.5l418 -68l-90 -174q-219 59 -344 92t-186.5 49.5 t-77 20.5t-17.5 4q-6 0 -61.5 4t-136 23.5t-173 60.5t-173 116.5t-136 191.5t-59.5 308zM199 743q4 -61 20.5 -126.5t47 -130t75.5 -123t109.5 -101.5t147.5 -66q62 -18 136 -18q25 0 51 2q147 8 241.5 64.5t149 135.5t78 170t25.5 169v21q0 64 -10 122q-13 68 -43.5 138.5 t-80.5 137t-124 118t-173 78.5q-77 22 -171 22q-28 0 -57 -2q-150 -10 -238 -77t-131 -157t-52 -187q-5 -50 -5 -99q0 -46 4 -91z" />
<glyph unicode="R" horiz-adv-x="1126" d="M41 1421q4 0 49 3q46 4 116 6q29 1 61 1q45 -1 97 -3q88 -4 179.5 -15.5t178.5 -36t153.5 -66.5t106.5 -102q38 -58 38 -139v-8q-2 -80 -34 -141.5t-82 -107.5t-112.5 -78t-127.5 -52q-154 -49 -347 -57l467 -525l-137 -96l-461 606l13 -602l-136 4zM182 750 q65 -5 125 -5q111 0 205 17q61 12 119.5 32.5t104.5 56.5t74 86t28 122q0 63 -29 108t-75 76t-104.5 49.5t-119.5 28.5q-91 15 -200 15q-61 0 -128 -5v-581z" />
<glyph unicode="S" horiz-adv-x="882" d="M8 1097q-5 28 -6 57q0 58 21 118q23 68 88 104t148 48q61 9 126 9q24 1 48 -1q91 -4 167 -14.5t124 -23t48 -14.5l-6 -143q0 -2 -35 12.5t-89 30.5t-120 28q-50 9 -100 10q-16 0 -32 -1q-64 -4 -117.5 -29.5t-82.5 -87.5q-22 -48 -23 -97q0 -29 8 -57q20 -78 70 -156.5 t122.5 -157.5t144.5 -153.5t132 -145.5t88 -135q18 -41 19 -79q-1 -21 -7 -41q-16 -55 -95 -100q-67 -37 -135 -44q-27 -3 -52 -3q-40 0 -82 7q-66 11 -124.5 34.5t-104 48t-71 42t-25.5 19.5l78 103q12 -14 41 -38t65.5 -47.5t81 -43t88.5 -26.5q19 -3 38 -3q23 0 45 5 q40 9 71 44q29 33 29 70q0 11 -3 22q-11 49 -51 106.5t-102.5 121t-130 133t-132 145.5t-107 157t-58.5 166z" />
<glyph unicode="T" horiz-adv-x="1288" d="M0 1430l1225 -15l-13 -121l-573 13l109 -1293l-203 -14l-33 1315l-506 10z" />
<glyph unicode="U" horiz-adv-x="1492" d="M43 1432l143 2q-5 -126 -5 -243q0 -226 18 -419q14 -125 43.5 -243.5t79 -213t121 -150.5t173.5 -59h13q183 0 297 56q118 58 176 206q60 148 68 405q2 62 2 131q0 221 -21 523l207 5q2 -180 2 -319q0 -314 -10 -425q-14 -160 -52 -287t-119 -216t-215 -137 q-129 -46 -323 -46h-16h-9q-154 0 -254 68q-104 70 -168.5 184.5t-94 264t-41 309.5t-15.5 604z" />
<glyph unicode="V" horiz-adv-x="1454" d="M23 1382l122 52l498 -1194l555 1196l158 -76l-672 -1366l-70 6z" />
<glyph unicode="W" horiz-adv-x="1923" d="M61 1366l160 68l475 -1198l375 841l51 13l275 -689l278 973l164 -43l-377 -1233l-65 2l-303 734l-365 -822l-84 -12z" />
<glyph unicode="X" horiz-adv-x="1474" d="M70 121l501 686l-471 547l105 78l440 -517l322 467l131 -100l-365 -483l608 -713l-110 -80l-565 692l-441 -675z" />
<glyph unicode="Y" horiz-adv-x="1269" d="M55 1339l97 70l419 -510l428 537l134 -107l-463 -538l55 -785l-178 -6l-25 795z" />
<glyph unicode="Z" horiz-adv-x="1306" d="M92 1434l1127 -13l2 -71l-801 -1227l780 37l10 -140l-995 -20l-10 92l819 1225l-922 -8z" />
<glyph unicode="[" horiz-adv-x="409" d="M4 1409l258 25v-148h-135l20 -1210l140 16l14 -74l-229 -18z" />
<glyph unicode="\" horiz-adv-x="755" d="M25 1368l153 23l473 -1239l-84 -29z" />
<glyph unicode="]" horiz-adv-x="442" d="M2 1415l236 23l96 -1405l-262 -29l-6 119l137 4l-39 1229l-146 -15z" />
<glyph unicode="^" horiz-adv-x="585" d="M0 1217l272 325l211 -348l-61 -14l-154 276l-180 -291z" />
<glyph unicode="_" horiz-adv-x="911" d="M0 -131h911v-82h-911v82z" />
<glyph unicode="`" horiz-adv-x="268" d="M0 1444l78 92l190 -225l-28 -43z" />
<glyph unicode="a" horiz-adv-x="1304" d="M68 524q10 109 60 192t127 138t176 84t210 29q100 0 193.5 -36t150.5 -102l4 103h170l-12 -924l-174 2l6 146q-76 -70 -175 -105t-212 -37h-12q-112 0 -208 36q-100 38 -172 106q-71 70 -107 164q-28 72 -28 153q0 25 3 51zM229 514q-1 -11 -1 -23q0 -32 4 -66 q6 -46 22 -90t40.5 -84t62.5 -70.5t88 -50t116 -21.5h23q96 -1 168 29q80 34 130 89.5t67.5 124t19.5 133.5v18q1 61 -11 119q-14 68 -59 121.5t-115.5 87t-165.5 35.5h-11q-53 0 -113 -18q-66 -20 -123.5 -62.5t-97.5 -109t-44 -162.5z" />
<glyph unicode="b" horiz-adv-x="1179" d="M0 1419h147l3 -583q72 66 167 102.5t197 36.5q115 0 214 -26.5t176 -82t125 -138.5t61 -193q2 -25 2 -50q0 -87 -27 -163q-35 -100 -105 -171t-172 -112q-97 -39 -214 -39h-11q-113 2 -214 38t-179 105l4 -147l-162 -2zM166 481q2 -66 26.5 -136.5t77 -126.5t132.5 -91 q71 -31 171 -31h23q100 4 166.5 44t106.5 100q39 60 55 132q14 63 14 124v16q-6 96 -46 166t-99.5 113t-128 62t-127.5 19q-96 -2 -168 -36.5t-118 -89.5q-45 -56 -67 -124q-18 -58 -19 -118q0 -12 1 -23z" />
<glyph unicode="c" horiz-adv-x="964" d="M8 408q-7 35 -8 75q0 93 39 209q39 86 89 144.5t112.5 95.5t132 54.5t139.5 25.5q36 2 71 2q174 0 320 -58l-2 -168q-157 67 -325 67q-22 0 -44 -1q-59 -6 -116.5 -22.5t-107.5 -48t-97 -86t-66 -132.5q-10 -50 -10 -85q0 -16 2 -28q6 -40 21.5 -94.5t70 -114t130 -100.5 t177.5 -42h3q101 0 256 51q6 -125 6 -129q-79 -31 -181 -37q-23 -1 -47 -1q-77 0 -150 15q-95 20 -183 68.5t-148 135t-84 204.5z" />
<glyph unicode="d" horiz-adv-x="1263" d="M43 520q10 113 61.5 198t130 142.5t180 86t216.5 28.5q102 0 197.5 -37t166.5 -102l2 583h205l-12 -1425l-219 2l4 147q-78 -70 -179.5 -105.5t-213.5 -37.5h-12q-116 0 -214 37q-104 39 -177 109t-109 166q-29 76 -29 161q0 23 2 47zM209 512q-1 -14 -1 -28 q0 -56 12 -112q16 -72 55.5 -132t106.5 -100t167 -44h23q100 0 172 31q80 35 132 91t76.5 127t26.5 136q1 11 1 23q0 60 -18 118q-22 68 -68 123.5t-117.5 90t-168.5 36.5q-41 0 -85 -8t-87 -26.5t-83 -47t-70.5 -68.5t-51 -93.5t-22.5 -116.5z" />
<glyph unicode="e" horiz-adv-x="1224" d="M62 588q14 82 51 149.5t92 118.5t121.5 85t139.5 49.5t142 15.5q127 -4 226.5 -46t165.5 -115q68 -73 100 -172q29 -88 28 -194v-26q12 -2 -21.5 -2h-96h-146.5h-174h-177h-156.5h-113.5t-48 -2q10 -61 38.5 -111.5t68.5 -87.5t88 -62.5t93 -35.5q29 -6 69 -10 q22 -2 47 -1q22 0 47 1q54 3 121 17.5t146 45.5l31 -164q-59 -29 -135 -43q-77 -14 -153 -15h-13q-69 0 -132 9q-69 10 -114 33q-55 25 -108 56.5t-98.5 77.5t-79 107.5t-48.5 141.5q-8 51 -8 98q0 43 7 82zM203 575l749 -24q-16 76 -39.5 133t-72.5 98t-105.5 66.5 t-118.5 34.5q-30 5 -59 5q-47 0 -91 -12q-74 -18 -132 -60t-93.5 -104.5t-37.5 -136.5z" />
<glyph unicode="f" horiz-adv-x="731" d="M-88 821v131l201 -6l-7 -127zM100 499q-2 99 -2 186q0 96 3 175q5 152 21.5 252t48.5 163.5t82 97.5t122 52q29 6 63 9q11 2 23 2q24 0 51 -6q39 -7 83 -25.5t89 -52.5l-68 -119q-25 18 -48 32.5t-45.5 22.5t-48 11.5t-52.5 5.5q-55 -2 -90 -30t-56.5 -71t-29.5 -97 t-10 -109q-2 -35 -2 -67v-37q2 -48 2 -83l36 -799l-161 -8q-6 285 -11 495zM233 942l248 -6v-109l-245 2z" />
<glyph unicode="g" horiz-adv-x="1224" d="M4 563q14 115 68.5 204t137.5 149.5t187 87.5q72 18 148 18q35 0 71 -4q57 -6 103.5 -19.5t83.5 -30t63.5 -30.5t42.5 -25l-2 62h211q-6 -285 -12 -501t-20.5 -375.5t-37 -268.5t-74.5 -176.5t-127 -99t-163 -37.5h-18q-67 0 -136 27q-77 30 -139 104l92 96 q25 -31 46.5 -50.5t42 -33.5t43 -21.5t51.5 -11.5q11 -1 22 -1q37 0 67 16q38 22 63.5 63t40.5 94.5t23.5 109.5t11.5 110.5t5 97.5q-33 -29 -74 -48.5t-86 -30.5t-95 -15.5t-103 -6.5q-82 0 -157 18.5t-137.5 54.5t-112.5 85t-80.5 110.5t-45.5 131.5q-8 42 -8 86 q0 30 4 61zM162 553q-2 -18 -2 -36q0 -52 13 -103q17 -70 60 -128.5t112 -99.5t167 -53q29 -4 56 -4q62 0 116 19q78 28 129 80.5t75.5 122t26.5 141.5v21q0 69 -11 131q-13 71 -55 125t-110.5 89t-165.5 37q-14 1 -29 1q-52 0 -106 -12q-69 -14 -128.5 -52.5t-100.5 -107.5 t-47 -171z" />
<glyph unicode="h" horiz-adv-x="1071" d="M-12 1436l147 2l25 -598q20 25 48 46t59.5 37.5t63 28t62.5 15.5q83 14 150 15q39 0 73 -6q92 -14 153.5 -63t97.5 -131t54.5 -195.5t23.5 -256t7 -314.5h-172q-1 20 -1 43q0 34 2 75q3 68 5 140q1 36 1 73t-1 74q-2 75 -12 143.5t-30.5 128t-57.5 102.5t-92 65 q-39 16 -90 17q-20 0 -43 -3q-68 -6 -120 -28.5t-89 -69.5t-56.5 -120.5t-19.5 -182.5l8 -330l9 -141l-160 -2z" />
<glyph unicode="i" horiz-adv-x="468" d="M88 2l219 -2l19 922l-205 -2zM123 1157q0 18 7 33.5t19.5 28t29 19.5t32.5 7q18 0 34.5 -7t29 -19.5t19.5 -27.5t7 -34q0 -37 -26.5 -62.5t-63.5 -25.5q-35 0 -61.5 25.5t-26.5 62.5z" />
<glyph unicode="j" horiz-adv-x="741" d="M-57 -344q59 -78 131.5 -109.5t158.5 -31.5q98 4 161 38.5t106 105.5t69.5 179.5t33.5 268t13.5 375.5t14.5 501h-172l-10 -858q0 -43 -3.5 -97.5t-11.5 -110.5t-24.5 -109.5t-42 -94.5t-63.5 -63q-30 -16 -67 -16q-11 0 -22 1q-29 4 -51.5 11.5t-43 22t-41 33.5 t-44.5 48zM463 1169q0 18 7 35t19.5 28t27.5 18t34 7q18 0 34.5 -7t29 -18t18.5 -27.5t6 -35.5q0 -37 -25.5 -62.5t-62.5 -25.5t-62.5 25.5t-25.5 62.5z" />
<glyph unicode="k" horiz-adv-x="1026" d="M0 1427l135 5v-775l588 387l90 -122l-580 -342l666 -410l-111 -139l-632 467l22 -490l-141 -6z" />
<glyph unicode="l" horiz-adv-x="342" d="M57 1456l205 2l2 -1458h-190z" />
<glyph unicode="m" horiz-adv-x="1800" d="M2 942l158 2l4 -104q35 53 91 91t132 54q89 20 160 20q87 0 147 -29q112 -54 166 -198q14 18 41 47t63.5 57.5t82 51.5t96.5 29q53 9 99 9q89 0 152 -32q95 -48 146 -168q52 -120 64 -310q6 -97 6 -212q0 -111 -6 -240h-189q0 68 5 159t6 189v21q0 86 -7 170 q-8 94 -34.5 164.5t-78.5 110.5q-41 32 -103 32q-16 0 -32 -2q-72 -10 -117.5 -55t-71.5 -111.5t-37 -145.5t-13 -157q6 -78 8 -165t4 -183h-164q0 66 3 158q2 46 1.5 93.5t-1.5 95.5q-3 97 -18 192.5t-51 169t-100 115.5q-53 35 -131 35q-15 0 -30 -1q-268 -20 -273 -422 l8 -330l9 -141l-168 -2z" />
<glyph unicode="n" horiz-adv-x="1234" d="M78 942l149 2l4 -104q66 57 138.5 92t154.5 53q99 24 178 23q24 0 48 -2q96 -10 168.5 -60.5t117.5 -134.5t58.5 -198.5t19.5 -259t6 -316.5h-231q0 49 2 113t4 136q1 48 1 97v50q-1 75 -12.5 144.5t-32 130t-52 104.5t-81.5 66q-39 18 -96 18q-15 0 -32 -1 q-68 -6 -128.5 -36t-107.5 -82t-75.5 -129t-30.5 -175l8 -330l8 -141l-160 -2z" />
<glyph unicode="o" horiz-adv-x="1245" d="M39 498q12 113 62.5 201.5t130.5 148.5q80 61 184 97q99 34 192 34h10q80 0 179.5 -37t175.5 -101.5t121 -152.5q40 -78 40 -169q0 -12 -1 -25q-6 -125 -54.5 -222.5t-128.5 -163t-178 -101.5t-184 -36h-10q-97 0 -201 38q-109 40 -187.5 109.5t-119.5 167.5 q-33 79 -33 168q0 22 2 44zM207 492q-1 -12 -1 -23q0 -57 16 -117q20 -72 64 -134t113.5 -103t167.5 -45h12q47 0 93 14q50 16 99.5 46t85.5 71t58.5 87t30.5 94t10 95q1 12 1 24q0 61 -17 117q-20 68 -66.5 122.5t-119 90t-146.5 37.5q-8 1 -16 1q-44 -1 -104 -19 q-72 -22 -133.5 -67.5t-103.5 -118t-44 -172.5z" />
<glyph unicode="p" d="M57 954h136l4 -102q68 66 155.5 97.5t188.5 35.5q22 1 43 1q82 0 158 -18q94 -24 167.5 -77t122.5 -137t64 -199q2 -26 2 -51q0 -84 -26 -160q-34 -98 -96.5 -178t-163.5 -130q-94 -46 -201 -46h-17q-53 2 -105.5 11t-102.5 28.5t-96 46t-87 55.5l2 -557l-137 -2z M209 504q0 -76 22.5 -148.5t71.5 -128t129 -85.5q57 -22 131 -22q29 0 60 3q66 6 114.5 27.5t85.5 52t62.5 69.5t42 82t21.5 88q4 32 4 63q0 13 -1 25q-4 96 -43 165t-96 112t-122.5 62.5t-123.5 19.5q-92 -2 -160.5 -37t-113.5 -88t-67 -122q-18 -57 -18 -116q0 -11 1 -22z " />
<glyph unicode="q" horiz-adv-x="1187" d="M2 518q8 109 56 193t124 141t174.5 88t208.5 33h11q94 0 184 -32q94 -34 166 -97v100l133 -2l14 -1413l-155 -2l2 643q-74 -72 -172.5 -108.5t-210.5 -41.5q-17 -1 -34 -1q-99 0 -187 31q-101 36 -173.5 102.5t-110.5 161.5q-31 78 -31 166q0 19 1 38zM164 512v-14 q0 -60 14 -122q17 -69 56.5 -127.5t105.5 -96t164 -39.5q74 0 133 15t105 44t79 66.5t53.5 80.5t30.5 89.5t13 89.5v11q0 64 -21 126q-23 67 -70 119.5t-117.5 85t-162.5 32.5q-39 0 -82 -9t-85 -28.5t-81 -48t-68.5 -68.5t-47 -91.5t-19.5 -114.5z" />
<glyph unicode="r" horiz-adv-x="821" d="M51 940l144 4l2 -162q16 23 42.5 48.5t61.5 50t79 44t96 27.5q25 4 51 5q29 1 61 -5q60 -10 131 -41l-41 -143q-54 31 -112 44q-39 9 -79 9q-17 0 -35 -2q-56 -6 -104.5 -31.5t-84.5 -75.5q-37 -50 -55 -124q-15 -58 -14 -133q0 -20 1 -41l16 -406l-154 -8z" />
<glyph unicode="s" horiz-adv-x="890" d="M26 706q-2 15 -2 31q0 61 33 131q49 82 155 130q72 33 162 34q42 0 90 -8q148 -23 240.5 -82t92.5 -61l-92 -162q-115 121 -217 153q-58 18 -111 18q-40 0 -77 -10q-87 -24 -124 -100q-10 -30 -11 -58q1 -56 43 -102q62 -70 182 -158.5t184 -161.5q57 -65 57 -141v-19 q-8 -87 -115 -140q-60 -20 -117 -20q-24 0 -48 4q-79 12 -134 40.5t-164 110.5l88 123q88 -102 203 -143q43 -15 76 -15q52 0 74 42q10 19 10 38q0 50 -66 104q-92 74 -197.5 150t-155 137t-59.5 135z" />
<glyph unicode="t" horiz-adv-x="716" d="M2 825l2 131l205 -8l-2 330h123l8 -334l254 -6v-107l-246 3l19 -824l-162 -6l-4 819z" />
<glyph unicode="u" horiz-adv-x="1136" d="M37 659.5q0 141.5 2 315.5l170 -6q-2 -47 -7 -110.5t-10.5 -135.5t-5.5 -147.5t8.5 -146.5t28 -134.5t55.5 -110.5q36 -48 90 -74q51 -25 123 -24h11q76 0 139.5 27.5t110.5 79t74.5 126t31.5 173.5l6 464l160 -4l-14 -936l-150 4v107q-68 -57 -141.5 -94t-157.5 -41 q-27 -1 -53 -1q-96 -1 -167 17q-91 22 -150.5 73.5t-91 133.5t-47 192.5t-15.5 252z" />
<glyph unicode="v" horiz-adv-x="1150" d="M2 936l125 61l399 -780l392 784l157 -77l-500 -930l-67 6z" />
<glyph unicode="w" horiz-adv-x="1679" d="M2 924l160 67l315 -755l328 778l69 2l302 -654l225 648l151 -41l-311 -873l-74 4l-333 682l-332 -770l-86 -12z" />
<glyph unicode="x" horiz-adv-x="1079" d="M-12 934l102 100l379 -395l311 369l103 -90l-326 -373l391 -393l-102 -113l-369 387l-354 -424l-123 98l379 430z" />
<glyph unicode="y" horiz-adv-x="1124" d="M-4 -250l119 57q12 -35 24.5 -57t22.5 -35.5t22.5 -22.5t28.5 -18q29 -19 58 -19l20 3q39 8 73.5 41t66.5 82t56.5 105.5t44 112.5t29.5 101l-561 756l121 74l493 -692l228 747l157 -45l-348 -1014q-53 -127 -105 -206.5t-107.5 -121.5t-116.5 -52q-20 -3 -41 -3 q-44 0 -93 13q-23 4 -49 18t-54 39t-51.5 58.5t-37.5 78.5z" />
<glyph unicode="z" horiz-adv-x="968" d="M16 856l4 127l799 -16l2 -82l-555 -760l588 2l-6 -133l-780 22l-5 82l576 764z" />
<glyph unicode="{" horiz-adv-x="544" d="M-2 666q61 4 90 38.5t37 86t0 113t-19.5 119.5t-20.5 108.5t-3 76.5q4 27 21.5 71t57.5 82t107.5 57.5t173.5 -3.5l4 -131q-68 10 -122 2q-47 -8 -90.5 -36.5t-53.5 -94.5q-12 -66 -2 -129t25.5 -117.5t29 -97.5t7.5 -70q-8 -29 -20.5 -45t-26 -26.5t-24.5 -15.5t-17 -7 q2 -6 8 -10t12 -13.5t11 -29t5 -55.5q0 -25 -9 -66t-16 -87t-6 -92t21.5 -84t66.5 -60.5t128 -20.5l-19 -121q-78 -6 -143 17q-29 8 -55.5 24.5t-48 43t-36 63.5t-16.5 88q2 72 18.5 129t21.5 106t-13.5 94t-83.5 93z" />
<glyph unicode="|" horiz-adv-x="309" d="M76 72l18 1298l92 6v-1315z" />
<glyph unicode="}" horiz-adv-x="565" d="M4 1421q78 18 146 6q57 -10 110 -52t76 -138q8 -74 2 -133.5t-3 -109.5t28.5 -91t99.5 -78q-61 -16 -85 -55t-24 -92t18.5 -113.5t39 -118t37 -105.5t14.5 -75q0 -25 -9.5 -70.5t-43 -90t-97 -76t-174.5 -25.5l-24 133q68 -2 121 17q45 16 82.5 51t39.5 102 q0 68 -19.5 129.5t-44 114.5t-44 94t-17.5 70q4 27 13.5 44t21 29.5t21.5 18.5t16 12q-4 6 -11 9t-13.5 11.5t-13.5 27t-11 55.5q-4 25 -2 66.5t2 88.5t-8 93.5t-35 79t-76 47t-131 -0.5z" />
<glyph unicode="~" horiz-adv-x="655" d="M-2 590q41 55 82 102q35 39 77 74t79 41q37 4 61.5 -24.5t43.5 -63.5t35.5 -63.5t39.5 -24.5q18 0 30.5 37t20.5 82q8 53 14 118l70 -16q-16 -80 -37 -145q-16 -55 -40.5 -102.5t-51.5 -51.5q-41 -6 -59.5 16.5t-32 50t-28.5 52t-48 24.5q-35 4 -68.5 -22.5t-62.5 -59.5 q-33 -37 -62 -86z" />
<glyph unicode="&#xa1;" horiz-adv-x="411" d="M47 1410q-4 -43 13.5 -76.5t52.5 -39.5t63.5 17.5t32.5 63.5q8 41 -10.5 74t-53.5 41t-61.5 -15.5t-36.5 -64.5zM78 1148l55 -1121l180 22l-147 1116z" />
<glyph unicode="&#xa2;" horiz-adv-x="612" d="M4 668q-4 59 13.5 104t48 80t71.5 59.5t84 42.5l-16 138l51 8l14 -127q63 18 113 24q25 4 49 4q4 -76 4 -73.5t-2 2.5l-18 1q-17 1 -41.5 1t-93.5 -12l41 -306q39 14 58 23.5t50 38.5l31 24l47 -96l-51 -24l-127 -43l26 -183h-86l-12 166q-47 -8 -90 -7t-78 16.5 t-57.5 48t-28.5 90.5zM102 711q0 -82 43 -110t103 -11l-25 311q-49 -27 -85 -71.5t-36 -118.5z" />
<glyph unicode="&#xa3;" horiz-adv-x="778" d="M0 674l123 12q-12 150 2 245t47 156.5t78 94t94 45.5q113 29 264 -25q-53 -117 -51 -115q-96 39 -157.5 39t-97.5 -25.5t-51 -72.5t-20.5 -103.5t2.5 -228.5l111 13l4 -86l-108 -13l32 -358l408 24l-2 -114h-615l3 78l69 4v55l-8 305l-121 -14z" />
<glyph unicode="&#xa8;" horiz-adv-x="354" d="M5 1464q-5 25 7 45q20 25 46 26t46 -13q20 -16 23.5 -38t-8.5 -42q-16 -20 -40 -22.5t-46 7.5q-23 12 -28 37zM242 1453q-4 22 12 42q18 16 40.5 15t33.5 -9q16 -12 21 -30.5t-7 -36.5q-14 -16 -35.5 -20.5t-42.5 7.5q-18 10 -22 32z" />
<glyph unicode="&#xa9;" horiz-adv-x="1228" d="M10 733q8 154 72.5 249t153 147.5t182.5 72t160 19.5q72 0 161.5 -19.5t174.5 -72t145.5 -144.5t70.5 -246q-6 -135 -59 -228t-136 -150.5t-182.5 -83t-193.5 -25.5q-72 0 -172 16.5t-187 69.5t-143.5 147.5t-46.5 247.5zM74 696q0 -104 46 -180t118.5 -122t155.5 -66.5 t161 -20.5q76 -4 166 20.5t167 83t125 149.5t44 220q-4 119 -62.5 199t-133.5 126t-146.5 63.5t-102.5 17.5q-227 14 -382.5 -122t-155.5 -368zM279 858q37 106 117.5 148.5t162.5 52.5q100 8 213 -15v-79q-109 33 -197 22q-80 -8 -151.5 -50t-93.5 -151q-10 -43 -8 -101 t41.5 -106.5t123.5 -77t238 -14.5q0 -14 2 -26q0 -10 2 -12.5t2 -8.5v-8q-68 -8 -164 0t-172 53t-115.5 132.5t-0.5 240.5z" />
<glyph unicode="&#xac;" horiz-adv-x="727" d="M0 641l584 -6l43 -189l-90 -6l-7 135l-524 -24z" />
<glyph unicode="&#xad;" horiz-adv-x="585" d="M0 766l475 39l-8 -131l-459 16z" />
<glyph unicode="&#xae;" horiz-adv-x="1241" d="M-2 711q10 150 74.5 250t154.5 155t187.5 72.5t165.5 17.5t163 -19.5t181 -72.5t146 -148.5t71 -248.5q-4 -137 -60.5 -233.5t-141.5 -155t-185.5 -85t-194.5 -26.5q-72 0 -175 18.5t-191.5 70.5t-146.5 149.5t-48 255.5zM61 674q0 -111 48.5 -187.5t120 -123t159.5 -68 t166 -21.5q76 -4 169 19.5t170 83t125 154t44 225.5q-6 121 -65.5 202.5t-136.5 128t-148.5 69t-100.5 22.5q-238 8 -394.5 -130.5t-156.5 -373.5zM365 1051q6 0 78.5 5t156.5 -7.5t155.5 -49t65.5 -116.5q-4 -74 -52 -113t-105 -59q-70 -23 -156 -33l250 -281h-117 l-207 271l-6 -277l-53 6zM428 741q84 -10 152 4q57 10 107 39t50 99q0 57 -50 85.5t-107 39.5q-68 12 -152 0v-267z" />
<glyph unicode="&#xb4;" horiz-adv-x="286" d="M6 1305l193 229l82 -94l-244 -180z" />
<glyph unicode="&#xb8;" horiz-adv-x="278" d="M8 -90q55 -8 98 -6q37 2 69 13t34 46q2 27 -14.5 32t-40 4t-48 -1t-36.5 14q-12 12 -17.5 32t-7.5 77h109q-10 -16 -19 -31q-6 -12 -7 -26.5t9 -24.5q8 -10 25.5 -12t36 -5.5t36 -11.5t29.5 -30q12 -23 2 -48.5t-40.5 -48t-85 -38t-132.5 -15.5q-2 0 0 80z" />
<glyph unicode="&#xbf;" horiz-adv-x="942" d="M15 429.5q13 56.5 48.5 104t87 83t108.5 62.5q133 63 318 98l-31 328l100 4v-414q-162 -23 -276 -71q-49 -20 -92 -49t-71 -66t-34 -83.5t19 -104.5q23 -53 60.5 -83.5t83.5 -43t97.5 -10.5t100.5 10q117 23 247 86l64 -169q-43 -25 -112.5 -46.5t-152.5 -33t-170 -6 t-165 35t-137 87t-88 153.5q-18 72 -5 128.5zM505 1294q0 40 25 73q29 37 64.5 51.5t62.5 -12.5q23 -16 22.5 -55t-25.5 -74q-29 -39 -64 -51.5t-60 12.5q-25 16 -25 56z" />
<glyph unicode="&#xc0;" horiz-adv-x="1300" d="M10 39l465 1384l103 4l632 -1355l-159 -64l-539 1221l-168 -555l432 6l35 -88l-485 -2l-195 -590zM295 1630l78 92l190 -225l-28 -43z" />
<glyph unicode="&#xc1;" horiz-adv-x="1300" d="M10 39l465 1384l103 4l632 -1355l-159 -64l-539 1221l-168 -555l432 6l35 -88l-485 -2l-195 -590zM483 1508l193 229l82 -94l-244 -180z" />
<glyph unicode="&#xc2;" horiz-adv-x="1300" d="M10 39l465 1384l103 4l632 -1355l-159 -64l-539 1221l-168 -555l432 6l35 -88l-485 -2l-195 -590zM313 1438l168 305l248 -215l-64 -64l-174 185l-112 -242z" />
<glyph unicode="&#xc3;" horiz-adv-x="1300" d="M10 39l465 1384l103 4l632 -1355l-159 -64l-539 1221l-168 -555l432 6l35 -88l-485 -2l-195 -590zM248 1499q37 45 74 82q33 31 69.5 59.5t69.5 32.5q33 2 55.5 -20.5t40 -51.5t33.5 -52.5t35 -19.5q16 0 27.5 30t17.5 67q8 43 12 98l64 -12q-14 -66 -33 -119 q-16 -45 -37.5 -83t-44.5 -42q-37 -4 -54.5 13.5t-29.5 40t-25.5 43t-42.5 20.5q-33 2 -63.5 -18.5t-54.5 -47.5q-29 -31 -56 -72z" />
<glyph unicode="&#xc4;" horiz-adv-x="1300" d="M10 39l465 1384l103 4l632 -1355l-159 -64l-539 1221l-168 -555l432 6l35 -88l-485 -2l-195 -590zM353 1521q-5 25 7 45q20 25 46 26t46 -13q20 -16 23.5 -38t-8.5 -42q-16 -20 -40 -22.5t-46 7.5q-23 12 -28 37zM590 1510q-4 22 12 42q18 16 40.5 15t33.5 -9 q16 -12 21 -30.5t-7 -36.5q-14 -16 -35.5 -20.5t-42.5 7.5q-18 10 -22 32z" />
<glyph unicode="&#xc5;" horiz-adv-x="1300" d="M10 39l465 1384l103 4l632 -1355l-159 -64l-539 1221l-168 -555l432 6l35 -88l-485 -2l-195 -590zM385 1534q0 27 5 43t16.5 29.5t25 23.5t28.5 16.5t29.5 8.5t34.5 2q23 -2 43.5 -9.5t39 -21.5t31.5 -36.5t13 -55.5q0 -27 -7 -45.5t-18 -31.5t-24.5 -21.5t-27 -13.5 t-29 -7t-23.5 -2q-12 0 -25.5 2t-27.5 7t-27.5 14.5t-25.5 22.5t-21.5 31.5t-9.5 43.5zM430 1542q0 -23 7.5 -43t20.5 -34.5t28.5 -19.5t40.5 -5q20 2 29 6t17.5 10t15.5 15.5t12 21.5t7 26q2 33 -7 52.5t-21.5 31t-24.5 16.5t-39 5q-16 0 -32.5 -6t-27.5 -16.5t-17.5 -23.5 t-8.5 -36z" />
<glyph unicode="&#xc6;" horiz-adv-x="1363" d="M8 4l473 1409l131 2l11 -1415h-129v1147l-142 -404l359 29l12 -127l-401 4l-222 -651zM506 0v1413l751 21v-181l-651 2l6 -483l492 37l4 -154l-485 -12l14 -539l588 37l2 -137z" />
<glyph unicode="&#xc7;" horiz-adv-x="1267" d="M8.5 588q-22.5 164 34.5 393q39 119 108.5 199t155.5 131t183.5 76.5t193.5 35.5q223 23 483 -28v-181q-246 55 -450 37q-88 -8 -176 -32.5t-164 -74.5t-134.5 -130t-84.5 -199q-14 -68 -17.5 -149.5t20 -163.5t80 -156t161 -127t262 -76.5t383.5 -3.5l12 -57 q4 -23 7 -41t1 -21q-109 -12 -242 -9t-266 34t-253 94.5t-197.5 174t-100 274.5zM571 -153q55 -8 98 -6q37 2 69 13t34 46q2 27 -14.5 32t-40 4t-48 -1t-36.5 14q-12 12 -17.5 32t-7.5 77h109q-10 -16 -19 -31q-6 -12 -7 -26.5t9 -24.5q8 -10 25.5 -12t36 -5.5t36 -11.5 t29.5 -30q12 -23 2 -48.5t-40.5 -48t-85 -38t-132.5 -15.5q-2 0 0 80z" />
<glyph unicode="&#xc8;" horiz-adv-x="985" d="M41 0v1413l842 19v-179l-723 7l6 -490l594 35l2 -154l-588 -10l6 -535l668 31l4 -137h-811zM291 1637l78 92l190 -225l-28 -43z" />
<glyph unicode="&#xc9;" horiz-adv-x="980" d="M41 0v1413l842 19v-179l-723 7l6 -490l594 35l2 -154l-588 -10l6 -535l668 31l4 -137h-811zM377 1508l193 229l82 -94l-244 -180z" />
<glyph unicode="&#xca;" horiz-adv-x="987" d="M41 0v1413l842 19v-179l-723 7l6 -490l594 35l2 -154l-588 -10l6 -535l668 31l4 -137h-811zM248 1485l168 305l248 -215l-64 -64l-174 185l-112 -242z" />
<glyph unicode="&#xcb;" horiz-adv-x="985" d="M43 0v1413l842 19v-179l-723 7l6 -490l594 35l2 -154l-588 -10l6 -535l668 31l4 -137h-811zM306 1523q-5 25 7 45q20 25 46 26t46 -13q20 -16 23.5 -38t-8.5 -42q-16 -20 -40 -22.5t-46 7.5q-23 12 -28 37zM543 1512q-4 22 12 42q18 16 40.5 15t33.5 -9q16 -12 21 -30.5 t-7 -36.5q-14 -16 -35.5 -20.5t-42.5 7.5q-18 10 -22 32z" />
<glyph unicode="&#xcc;" horiz-adv-x="446" d="M18 1653l78 92l190 -225l-28 -43zM129 2l43 1432l165 -2l-75 -1432z" />
<glyph unicode="&#xcd;" horiz-adv-x="448" d="M109 2l43 1432l165 -2l-75 -1432zM112 1524l193 229l82 -94l-244 -180z" />
<glyph unicode="&#xce;" horiz-adv-x="448" d="M15 1429l151 275l224 -194l-58 -58l-157 167l-101 -218zM121 2l43 1432l165 -2l-75 -1432z" />
<glyph unicode="&#xcf;" horiz-adv-x="448" d="M32 1523q-5 25 7 45q20 25 46 26t46 -13q20 -16 23.5 -38t-8.5 -42q-16 -20 -40 -22.5t-46 7.5q-23 12 -28 37zM119 2l43 1432l165 -2l-75 -1432zM269 1512q-4 22 12 42q18 16 40.5 15t33.5 -9q16 -12 21 -30.5t-7 -36.5q-14 -16 -35.5 -20.5t-42.5 7.5q-18 10 -22 32z " />
<glyph unicode="&#xd0;" horiz-adv-x="1689" d="M0 709l160 6l-2 686q408 35 731 -27q137 -27 269 -77t235.5 -133t167 -203.5t65.5 -288.5q-8 -158 -74.5 -268.5t-171 -185.5t-236.5 -119t-267 -64q-319 -51 -719 -12v559h-152zM287 133q322 -20 579 25q109 18 214.5 54t190.5 94.5t138 144.5t57 204q4 127 -43 219.5 t-128 156t-186 102t-216 59.5q-260 49 -592 27l-6 -498l272 12l-8 -149l-266 -2z" />
<glyph unicode="&#xd1;" horiz-adv-x="1519" d="M41 0v1434h92l1155 -1198l-12 1185l147 -6l-6 -1395l-117 -2l-1138 1153l16 -1171h-137zM408 1473q37 45 74 82q33 31 69.5 59.5t69.5 32.5q33 2 55.5 -20.5t40 -51.5t33.5 -52.5t35 -19.5q16 0 27.5 30t17.5 67q8 43 12 98l64 -12q-14 -66 -33 -119q-16 -45 -37.5 -83 t-44.5 -42q-37 -4 -54.5 13.5t-29.5 40t-25.5 43t-42.5 20.5q-33 2 -63.5 -18.5t-54.5 -47.5q-29 -31 -56 -72z" />
<glyph unicode="&#xd2;" horiz-adv-x="1740" d="M8 715q10 152 59.5 265.5t123 195t156.5 134t172 85t172 44t151 9.5q66 0 146.5 -11.5t167.5 -41t166 -79.5t150.5 -130t117.5 -196t48 -269q-6 -211 -85.5 -350.5t-199.5 -226.5t-264.5 -124.5t-277.5 -37.5q-72 0 -162 10t-182 43t-175 90t-150.5 138t-104.5 184.5 t-29 267.5zM197 633q4 -143 61 -247.5t134 -170t187.5 -98.5t223.5 -37q115 -2 236.5 34t209.5 112.5t154.5 216t60.5 343.5q-10 119 -51 213.5t-85 150.5t-108.5 98t-126 66.5t-194.5 39.5q-135 6 -265 -31t-233.5 -137.5t-155.5 -249t-48 -303.5zM592 1661l78 92l190 -225 l-28 -43z" />
<glyph unicode="&#xd3;" horiz-adv-x="1740" d="M8 715q10 152 59.5 265.5t123 195t156.5 134t172 85t172 44t151 9.5q66 0 146.5 -11.5t167.5 -41t166 -79.5t150.5 -130t117.5 -196t48 -269q-6 -211 -85.5 -350.5t-199.5 -226.5t-264.5 -124.5t-277.5 -37.5q-72 0 -162 10t-182 43t-175 90t-150.5 138t-104.5 184.5 t-29 267.5zM197 633q4 -143 61 -247.5t134 -170t187.5 -98.5t223.5 -37q115 -2 236.5 34t209.5 112.5t154.5 216t60.5 343.5q-10 119 -51 213.5t-85 150.5t-108.5 98t-126 66.5t-194.5 39.5q-135 6 -265 -31t-233.5 -137.5t-155.5 -249t-48 -303.5zM708 1532l193 229l82 -94 l-244 -180z" />
<glyph unicode="&#xd4;" horiz-adv-x="1740" d="M8 715q10 152 59.5 265.5t123 195t156.5 134t172 85t172 44t151 9.5q66 0 146.5 -11.5t167.5 -41t166 -79.5t150.5 -130t117.5 -196t48 -269q-6 -211 -85.5 -350.5t-199.5 -226.5t-264.5 -124.5t-277.5 -37.5q-72 0 -162 10t-182 43t-175 90t-150.5 138t-104.5 184.5 t-29 267.5zM197 633q4 -143 61 -247.5t134 -170t187.5 -98.5t223.5 -37q115 -2 236.5 34t209.5 112.5t154.5 216t60.5 343.5q-10 119 -51 213.5t-85 150.5t-108.5 98t-126 66.5t-194.5 39.5q-135 6 -265 -31t-233.5 -137.5t-155.5 -249t-48 -303.5zM557 1499l168 305 l248 -215l-64 -64l-174 185l-112 -242z" />
<glyph unicode="&#xd5;" horiz-adv-x="1740" d="M8 715q10 152 59.5 265.5t123 195t156.5 134t172 85t172 44t151 9.5q66 0 146.5 -11.5t167.5 -41t166 -79.5t150.5 -130t117.5 -196t48 -269q-6 -211 -85.5 -350.5t-199.5 -226.5t-264.5 -124.5t-277.5 -37.5q-72 0 -162 10t-182 43t-175 90t-150.5 138t-104.5 184.5 t-29 267.5zM197 633q4 -143 61 -247.5t134 -170t187.5 -98.5t223.5 -37q115 -2 236.5 34t209.5 112.5t154.5 216t60.5 343.5q-10 119 -51 213.5t-85 150.5t-108.5 98t-126 66.5t-194.5 39.5q-135 6 -265 -31t-233.5 -137.5t-155.5 -249t-48 -303.5zM520 1532q37 45 74 82 q33 31 69.5 59.5t69.5 32.5q33 2 55.5 -20.5t40 -51.5t33.5 -52.5t35 -19.5q16 0 27.5 30t17.5 67q8 43 12 98l64 -12q-14 -66 -33 -119q-16 -45 -37.5 -83t-44.5 -42q-37 -4 -54.5 13.5t-29.5 40t-25.5 43t-42.5 20.5q-33 2 -63.5 -18.5t-54.5 -47.5q-29 -31 -56 -72z" />
<glyph unicode="&#xd6;" horiz-adv-x="1740" d="M8 715q10 152 59.5 265.5t123 195t156.5 134t172 85t172 44t151 9.5q66 0 146.5 -11.5t167.5 -41t166 -79.5t150.5 -130t117.5 -196t48 -269q-6 -211 -85.5 -350.5t-199.5 -226.5t-264.5 -124.5t-277.5 -37.5q-72 0 -162 10t-182 43t-175 90t-150.5 138t-104.5 184.5 t-29 267.5zM197 633q4 -143 61 -247.5t134 -170t187.5 -98.5t223.5 -37q115 -2 236.5 34t209.5 112.5t154.5 216t60.5 343.5q-10 119 -51 213.5t-85 150.5t-108.5 98t-126 66.5t-194.5 39.5q-135 6 -265 -31t-233.5 -137.5t-155.5 -249t-48 -303.5zM597 1550q-5 25 7 45 q20 25 46 26t46 -13q20 -16 23.5 -38t-8.5 -42q-16 -20 -40 -22.5t-46 7.5q-23 12 -28 37zM834 1539q-4 22 12 42q18 16 40.5 15t33.5 -9q16 -12 21 -30.5t-7 -36.5q-14 -16 -35.5 -20.5t-42.5 7.5q-18 10 -22 32z" />
<glyph unicode="&#xd7;" horiz-adv-x="817" d="M0 930l117 2l219 -205l168 184l102 -4l-217 -235l338 -307l-100 -3l-273 261l-219 -250h-121l281 303z" />
<glyph unicode="&#xd8;" horiz-adv-x="1742" d="M4 715q8 147 56.5 257.5t119 190.5t158.5 132.5t178 83t175 43t153 12.5q76 -2 173 -16.5t197 -55.5l66 84l106 -100l-43 -52q61 -39 114.5 -91t94.5 -122.5t67 -160t32 -199.5q-4 -199 -85 -335t-203 -221t-268.5 -122t-281.5 -37q-98 0 -223 18.5t-244 75.5l-55 -65 l-66 51l43 55q-61 39 -113.5 91.5t-88 123t-53 159.5t-9.5 200zM168 645q4 -133 53 -231.5t129 -165.5l801 1032q-78 35 -145.5 48t-104.5 13q-135 6 -268 -48t-237.5 -151.5t-168 -226.5t-59.5 -270zM424 195q86 -53 183.5 -79t197.5 -30q115 -4 236.5 33t221 122t161 219 t53.5 324q-6 156 -65.5 257.5t-141.5 164.5z" />
<glyph unicode="&#xd9;" horiz-adv-x="1490" d="M43 1432l143 2q-14 -369 13 -662q14 -125 43.5 -243.5t79 -213t121 -150.5t173.5 -59q193 -2 310.5 55.5t176 206t67 405.5t-18.5 654l207 5q6 -584 -7.5 -744t-52 -287t-119.5 -216t-215.5 -137t-338.5 -46q-160 -2 -263.5 67.5t-168 184.5t-94 264.5t-41 309.5 t-15.5 604zM489 1610l78 92l190 -225l-28 -43z" />
<glyph unicode="&#xda;" horiz-adv-x="1484" d="M43 1432l143 2q-14 -369 13 -662q14 -125 43.5 -243.5t79 -213t121 -150.5t173.5 -59q193 -2 310.5 55.5t176 206t67 405.5t-18.5 654l207 5q6 -584 -7.5 -744t-52 -287t-119.5 -216t-215.5 -137t-338.5 -46q-160 -2 -263.5 67.5t-168 184.5t-94 264.5t-41 309.5 t-15.5 604zM588 1479l193 229l82 -94l-244 -180z" />
<glyph unicode="&#xdb;" horiz-adv-x="1433" d="M43 1432l143 2q-14 -369 13 -662q14 -125 43.5 -243.5t79 -213t121 -150.5t173.5 -59q193 -2 310.5 55.5t176 206t67 405.5t-18.5 654l207 5q6 -584 -7.5 -744t-52 -287t-119.5 -216t-215.5 -137t-338.5 -46q-160 -2 -263.5 67.5t-168 184.5t-94 264.5t-41 309.5 t-15.5 604zM449 1460l168 305l248 -215l-64 -64l-174 185l-112 -242z" />
<glyph unicode="&#xdc;" horiz-adv-x="1484" d="M43 1432l143 2q-14 -369 13 -662q14 -125 43.5 -243.5t79 -213t121 -150.5t173.5 -59q193 -2 310.5 55.5t176 206t67 405.5t-18.5 654l207 5q6 -584 -7.5 -744t-52 -287t-119.5 -216t-215.5 -137t-338.5 -46q-160 -2 -263.5 67.5t-168 184.5t-94 264.5t-41 309.5 t-15.5 604zM517 1464q-5 25 7 45q20 25 46 26t46 -13q20 -16 23.5 -38t-8.5 -42q-16 -20 -40 -22.5t-46 7.5q-23 12 -28 37zM754 1453q-4 22 12 42q18 16 40.5 15t33.5 -9q16 -12 21 -30.5t-7 -36.5q-14 -16 -35.5 -20.5t-42.5 7.5q-18 10 -22 32z" />
<glyph unicode="&#xdd;" horiz-adv-x="1265" d="M55 1339l97 70l419 -510l428 537l134 -107l-463 -538l55 -785l-178 -6l-25 795zM581 1477l193 229l82 -94l-244 -180z" />
<glyph unicode="&#xde;" horiz-adv-x="962" d="M0 1436h178l10 -355q59 4 131 4t145 -10t142.5 -34.5t125.5 -67.5t91 -107.5t41 -156.5q2 -90 -30.5 -157t-86 -114t-122 -76.5t-141 -47t-143.5 -24.5t-128 -9l8 -281h-135zM190 985l23 -637q37 0 90 5t109.5 18.5t113 36t100.5 60.5t70.5 91t24.5 127q-2 80 -32 134 t-77 88t-104 52.5t-115.5 24.5t-112 5t-90.5 -5z" />
<glyph unicode="&#xdf;" horiz-adv-x="950" d="M0 -6v1102q0 70 12.5 136t58.5 116.5t148.5 72t175.5 9.5q92 -12 150.5 -49.5t93.5 -82.5t47 -82.5t16 -87.5q2 -92 -33.5 -147t-76.5 -82t-96 -41q53 -6 92 -20.5t82 -37t82 -67.5t68.5 -116.5t33.5 -184.5q-4 -143 -54 -233t-129 -136.5t-171 -48.5t-156 45 q-43 33 -72.5 89.5t-25.5 117.5q-2 2 151 -2q-2 -45 21 -84q31 -49 96 -41q78 0 116 73t40 214q0 76 -13.5 132t-41 106.5t-93.5 91.5q-72 31 -186 24v140q37 2 88 10q55 16 72.5 31.5t33 39t24.5 54t7 86.5q-4 66 -40 117t-101.5 67t-124.5 4t-96 -50t-37 -116l51 -1157z " />
<glyph unicode="&#xe0;" horiz-adv-x="1196" d="M156 524q10 109 60 192t127 138t176 84t210 29q100 0 193.5 -36t150.5 -102l4 103h170l-12 -924l-174 2l6 146q-76 -70 -175 -105t-212 -37q-119 -2 -219.5 36t-172 106.5t-107.5 163t-25 204.5zM317 514q-2 -43 3.5 -89t21.5 -90t40.5 -84t62.5 -70.5t88 -50t116 -21.5 q111 -4 190.5 29.5t130 89t68 124t19.5 133.5q2 70 -11.5 137.5t-58.5 121t-115.5 87t-165.5 35.5q-57 2 -123.5 -17.5t-124 -62.5t-97.5 -109.5t-44 -162.5zM385 1223l78 92l190 -225l-28 -43z" />
<glyph unicode="&#xe1;" horiz-adv-x="1196" d="M156 524q10 109 60 192t127 138t176 84t210 29q100 0 193.5 -36t150.5 -102l4 103h170l-12 -924l-174 2l6 146q-76 -70 -175 -105t-212 -37q-119 -2 -219.5 36t-172 106.5t-107.5 163t-25 204.5zM317 514q-2 -43 3.5 -89t21.5 -90t40.5 -84t62.5 -70.5t88 -50t116 -21.5 q111 -4 190.5 29.5t130 89t68 124t19.5 133.5q2 70 -11.5 137.5t-58.5 121t-115.5 87t-165.5 35.5q-57 2 -123.5 -17.5t-124 -62.5t-97.5 -109.5t-44 -162.5zM479 1069l193 229l82 -94l-244 -180z" />
<glyph unicode="&#xe2;" horiz-adv-x="1196" d="M156 524q10 109 60 192t127 138t176 84t210 29q100 0 193.5 -36t150.5 -102l4 103h170l-12 -924l-174 2l6 146q-76 -70 -175 -105t-212 -37q-119 -2 -219.5 36t-172 106.5t-107.5 163t-25 204.5zM315 1041l168 305l248 -215l-64 -64l-174 185l-112 -242zM317 514 q-2 -43 3.5 -89t21.5 -90t40.5 -84t62.5 -70.5t88 -50t116 -21.5q111 -4 190.5 29.5t130 89t68 124t19.5 133.5q2 70 -11.5 137.5t-58.5 121t-115.5 87t-165.5 35.5q-57 2 -123.5 -17.5t-124 -62.5t-97.5 -109.5t-44 -162.5z" />
<glyph unicode="&#xe3;" horiz-adv-x="1196" d="M156 524q10 109 60 192t127 138t176 84t210 29q100 0 193.5 -36t150.5 -102l4 103h170l-12 -924l-174 2l6 146q-76 -70 -175 -105t-212 -37q-119 -2 -219.5 36t-172 106.5t-107.5 163t-25 204.5zM315 1086q37 45 74 82q33 31 69.5 59.5t69.5 32.5q33 2 55.5 -20.5 t40 -51.5t33.5 -52.5t35 -19.5q16 0 27.5 30t17.5 67q8 43 12 98l64 -12q-14 -66 -33 -119q-16 -45 -37.5 -83t-44.5 -42q-37 -4 -54.5 13.5t-29.5 40t-25.5 43t-42.5 20.5q-33 2 -63.5 -18.5t-54.5 -47.5q-29 -31 -56 -72zM317 514q-2 -43 3.5 -89t21.5 -90t40.5 -84 t62.5 -70.5t88 -50t116 -21.5q111 -4 190.5 29.5t130 89t68 124t19.5 133.5q2 70 -11.5 137.5t-58.5 121t-115.5 87t-165.5 35.5q-57 2 -123.5 -17.5t-124 -62.5t-97.5 -109.5t-44 -162.5z" />
<glyph unicode="&#xe4;" horiz-adv-x="1196" d="M156 524q10 109 60 192t127 138t176 84t210 29q100 0 193.5 -36t150.5 -102l4 103h170l-12 -924l-174 2l6 146q-76 -70 -175 -105t-212 -37q-119 -2 -219.5 36t-172 106.5t-107.5 163t-25 204.5zM317 514q-2 -43 3.5 -89t21.5 -90t40.5 -84t62.5 -70.5t88 -50t116 -21.5 q111 -4 190.5 29.5t130 89t68 124t19.5 133.5q2 70 -11.5 137.5t-58.5 121t-115.5 87t-165.5 35.5q-57 2 -123.5 -17.5t-124 -62.5t-97.5 -109.5t-44 -162.5zM367 1089q-5 25 7 45q20 25 46 26t46 -13q20 -16 23.5 -38t-8.5 -42q-16 -20 -40 -22.5t-46 7.5q-23 12 -28 37z M604 1078q-4 22 12 42q18 16 40.5 15t33.5 -9q16 -12 21 -30.5t-7 -36.5q-14 -16 -35.5 -20.5t-42.5 7.5q-18 10 -22 32z" />
<glyph unicode="&#xe5;" horiz-adv-x="1196" d="M156 524q10 109 60 192t127 138t176 84t210 29q100 0 193.5 -36t150.5 -102l4 103h170l-12 -924l-174 2l6 146q-76 -70 -175 -105t-212 -37q-119 -2 -219.5 36t-172 106.5t-107.5 163t-25 204.5zM317 514q-2 -43 3.5 -89t21.5 -90t40.5 -84t62.5 -70.5t88 -50t116 -21.5 q111 -4 190.5 29.5t130 89t68 124t19.5 133.5q2 70 -11.5 137.5t-58.5 121t-115.5 87t-165.5 35.5q-57 2 -123.5 -17.5t-124 -62.5t-97.5 -109.5t-44 -162.5zM424 1153q0 27 5 43t16.5 29.5t25 23.5t28.5 16.5t29.5 8.5t34.5 2q23 -2 43.5 -9.5t39 -21.5t31.5 -36.5 t13 -55.5q0 -27 -7 -45.5t-18 -31.5t-24.5 -21.5t-27 -13.5t-29 -7t-23.5 -2q-12 0 -25.5 2t-27.5 7t-27.5 14.5t-25.5 22.5t-21.5 31.5t-9.5 43.5zM469 1161q0 -23 7.5 -43t20.5 -34.5t28.5 -19.5t40.5 -5q20 2 29 6t17.5 10t15.5 15.5t12 21.5t7 26q2 33 -7 52.5t-21.5 31 t-24.5 16.5t-39 5q-16 0 -32.5 -6t-27.5 -16.5t-17.5 -23.5t-8.5 -36z" />
<glyph unicode="&#xe6;" horiz-adv-x="2082" d="M4 524q10 109 60.5 192t127 138t176 84t210.5 29q100 0 193 -36t163 -102l4 103h141l-12 -924l-158 2l6 146q-76 -70 -175 -105t-212 -37q-119 -2 -219 36t-171.5 106.5t-107.5 163t-26 204.5zM166 514q-2 -43 3 -89t21.5 -90t41 -84t62.5 -70.5t88 -50t116 -21.5 q111 -4 190.5 29.5t129.5 89t75 124t27 133.5q2 70 -18.5 137.5t-65.5 121t-116 87t-165 35.5q-57 2 -123.5 -17.5t-124 -62.5t-97.5 -109.5t-44 -162.5zM931 583q13 79 49 144.5t90 114.5t117.5 81.5t134.5 48t138 13.5q123 -4 219.5 -44t161 -110.5t96 -166.5t27.5 -211 q12 -2 -20.5 -3t-93 -1h-142.5h-168h-171h-152.5h-110.5t-45 -3q8 -59 36.5 -107t67.5 -84t85 -60.5t89 -32.5q27 -8 67 -11.5t92 0t116.5 16.5t140.5 44l33 -158q-59 -29 -133 -42t-147.5 -14t-140.5 8t-112 32q-53 23 -104 54.5t-95 76.5t-77 103.5t-45 136.5 q-16 96 -3 175zM1067 569l717 -22q-6 74 -34 129t-70 95t-97 63.5t-115 33.5q-74 10 -145.5 -7t-126.5 -58t-91 -101.5t-38 -132.5z" />
<glyph unicode="&#xe7;" horiz-adv-x="1028" d="M7.5 407.5q-23.5 118.5 31.5 284.5q39 86 89 144.5t112.5 95.5t132 54.5t139.5 25.5q215 14 391 -56l-2 -168q-178 76 -369 66q-59 -6 -116.5 -22.5t-107.5 -48t-97 -86t-66 -132.5q-14 -72 -8 -112.5t21.5 -95t70 -114t130 -100.5t177 -42t259.5 51q6 -125 6 -129 q-80 -31 -181.5 -37t-196.5 14t-183 68.5t-148.5 134.5t-84 204.5zM356 -170q55 -8 98 -6q37 2 69 13t34 46q2 27 -14.5 32t-40 4t-48 -1t-36.5 14q-12 12 -17.5 32t-7.5 77h109q-10 -16 -19 -31q-6 -12 -7 -26.5t9 -24.5q8 -10 25.5 -12t36 -5.5t36 -11.5t29.5 -30 q12 -23 2 -48.5t-40.5 -48t-85 -38t-132.5 -15.5q-2 0 0 80z" />
<glyph unicode="&#xe8;" horiz-adv-x="1130" d="M61.5 588q14.5 82 51.5 149.5t92 118.5t121.5 85t139.5 49.5t142 15.5q127 -4 226.5 -46t166 -115t99 -172t28.5 -220q12 -2 -21.5 -2h-96h-146.5h-174h-177h-156.5h-113.5t-48 -2q10 -61 38.5 -111.5t68.5 -87.5t88 -62.5t93 -35.5q29 -6 69 -9.5t94 -0.5t121 17.5 t146 45.5l31 -164q-59 -29 -135 -43t-152.5 -15t-145.5 9t-114 33q-55 25 -108 56.5t-98.5 77.5t-79 107.5t-48.5 141.5q-16 98 -1.5 180zM203 575l749 -24q-16 76 -39.5 133t-72.5 98t-105.5 66.5t-118.5 34.5q-76 12 -149.5 -6.5t-132 -60.5t-94 -104.5t-37.5 -136.5z M358 1170l78 92l190 -225l-28 -43z" />
<glyph unicode="&#xe9;" horiz-adv-x="1134" d="M61.5 590q14.5 82 51.5 149.5t92 118.5t121.5 85t139.5 49.5t142 15.5q127 -4 226.5 -46t166 -115t99 -172t28.5 -220q12 -2 -21.5 -2h-96h-146.5h-174h-177h-156.5h-113.5t-48 -2q10 -61 38.5 -111.5t68.5 -87.5t88 -62.5t93 -35.5q29 -6 69 -9.5t94 -0.5t121 17.5 t146 45.5l31 -164q-59 -29 -135 -43t-152.5 -15t-145.5 9t-114 33q-55 25 -108 56.5t-98.5 77.5t-79 107.5t-48.5 141.5q-16 98 -1.5 180zM203 577l749 -24q-16 76 -39.5 133t-72.5 98t-105.5 66.5t-118.5 34.5q-76 12 -149.5 -6.5t-132 -60.5t-94 -104.5t-37.5 -136.5z M461 1053l193 229l82 -94l-244 -180z" />
<glyph unicode="&#xea;" horiz-adv-x="1130" d="M61.5 590q14.5 82 51.5 149.5t92 118.5t121.5 85t139.5 49.5t142 15.5q127 -4 226.5 -46t166 -115t99 -172t28.5 -220q12 -2 -21.5 -2h-96h-146.5h-174h-177h-156.5h-113.5t-48 -2q10 -61 38.5 -111.5t68.5 -87.5t88 -62.5t93 -35.5q29 -6 69 -9.5t94 -0.5t121 17.5 t146 45.5l31 -164q-59 -29 -135 -43t-152.5 -15t-145.5 9t-114 33q-55 25 -108 56.5t-98.5 77.5t-79 107.5t-48.5 141.5q-16 98 -1.5 180zM203 577l749 -24q-16 76 -39.5 133t-72.5 98t-105.5 66.5t-118.5 34.5q-76 12 -149.5 -6.5t-132 -60.5t-94 -104.5t-37.5 -136.5z M285 1020l168 305l248 -215l-64 -64l-174 185l-112 -242z" />
<glyph unicode="&#xeb;" horiz-adv-x="1130" d="M61.5 590q14.5 82 51.5 149.5t92 118.5t121.5 85t139.5 49.5t142 15.5q127 -4 226.5 -46t166 -115t99 -172t28.5 -220q12 -2 -21.5 -2h-96h-146.5h-174h-177h-156.5h-113.5t-48 -2q10 -61 38.5 -111.5t68.5 -87.5t88 -62.5t93 -35.5q29 -6 69 -9.5t94 -0.5t121 17.5 t146 45.5l31 -164q-59 -29 -135 -43t-152.5 -15t-145.5 9t-114 33q-55 25 -108 56.5t-98.5 77.5t-79 107.5t-48.5 141.5q-16 98 -1.5 180zM203 577l749 -24q-16 76 -39.5 133t-72.5 98t-105.5 66.5t-118.5 34.5q-76 12 -149.5 -6.5t-132 -60.5t-94 -104.5t-37.5 -136.5z M298 1058q-5 25 7 45q20 25 46 26t46 -13q20 -16 23.5 -38t-8.5 -42q-16 -20 -40 -22.5t-46 7.5q-23 12 -28 37zM535 1047q-4 22 12 42q18 16 40.5 15t33.5 -9q16 -12 21 -30.5t-7 -36.5q-14 -16 -35.5 -20.5t-42.5 7.5q-18 10 -22 32z" />
<glyph unicode="&#xec;" horiz-adv-x="448" d="M6 1149l72 84l174 -209l-27 -39zM80 2l158 -2l14 922h-143z" />
<glyph unicode="&#xed;" horiz-adv-x="446" d="M63 2l158 -2l15 922h-144zM98 1008l193 229l82 -94l-244 -180z" />
<glyph unicode="&#xee;" horiz-adv-x="448" d="M43 1038l115 205l168 -145l-43 -43l-119 125l-76 -162zM74 2l157 -2l15 922h-146z" />
<glyph unicode="&#xef;" horiz-adv-x="448" d="M47.5 1062.5q-4.5 20.5 5.5 37.5q18 20 40 21t36 -11q18 -14 20 -32t-8 -34q-14 -18 -32.5 -19t-36.5 7q-20 10 -24.5 30.5zM74 2l157 -2l15 922h-144zM245 1053.5q-3 17.5 9 33.5q14 14 32.5 13.5t28.5 -6.5q14 -10 18.5 -25.5t-5.5 -30.5q-12 -14 -29.5 -17t-36.5 5 q-14 10 -17 27.5z" />
<glyph unicode="&#xf0;" d="M-4 479q8 113 59 204t131 155.5t185.5 98.5t226.5 34q78 -2 154.5 -22.5t144.5 -59.5q-20 35 -35.5 65.5t-37 63.5t-54.5 71.5t-86 90.5l-104 -101l-80 78l112 107q-27 29 -61.5 56.5t-69.5 55.5l90 86q31 -29 69 -59.5t65 -59.5l83 80l82 -71l-90 -84 q100 -96 168 -189.5t108 -187.5t55 -190.5t11 -196.5q-4 -125 -51 -222.5t-124 -163t-176 -99t-206 -35.5q-123 -2 -230.5 33.5t-185 102t-119.5 159t-34 200.5zM164 473q-4 -68 15.5 -135.5t63.5 -122.5t113.5 -92t167.5 -39q113 -4 195 27.5t135 86t81 123t30 138.5 q4 72 -19.5 138.5t-72 119.5t-120 87t-167.5 38q-70 4 -141.5 -16.5t-133 -65.5t-102.5 -116t-45 -171z" />
<glyph unicode="&#xf1;" horiz-adv-x="1130" d="M217 1114q37 45 74 82q33 31 69.5 59.5t69.5 32.5q33 2 55.5 -20.5t40 -51.5t33.5 -52.5t35 -19.5q16 0 27.5 30t17.5 67q8 43 12 98l64 -12q-14 -66 -33 -119q-16 -45 -37.5 -83t-44.5 -42q-37 -4 -54.5 13.5t-29.5 40t-25.5 43t-42.5 20.5q-33 2 -63.5 -18.5 t-54.5 -47.5q-29 -31 -56 -72zM228 942l149 2l4 -104q66 57 138.5 92t154.5 53q129 31 225.5 21.5t169 -60.5t117.5 -135t58.5 -198.5t19.5 -259t6 -316.5h-231q0 49 2 113.5t4 136t1 146.5t-12.5 144.5t-32 130t-52 104.5t-81.5 66.5t-128 16.5q-68 -6 -128.5 -36 t-107.5 -82t-75.5 -129t-30.5 -175l8 -330l8 -141l-160 -2z" />
<glyph unicode="&#xf2;" d="M154 498q12 113 62.5 201.5t130 149t184 96.5t202.5 34q80 0 179.5 -37t175.5 -101.5t121 -152.5t39 -194q-6 -125 -54.5 -222.5t-128.5 -163t-178 -101.5t-184 -36q-102 -2 -211 38t-187.5 109.5t-119.5 168t-31 211.5zM322 492q-4 -68 15.5 -140.5t63.5 -134 t113.5 -102.5t167.5 -45q55 -2 105.5 14t99.5 46t85 71t58.5 87t30.5 94t10 95q4 72 -16 140.5t-66.5 123t-119 90t-146.5 37.5q-49 4 -120.5 -17.5t-133 -67.5t-103.5 -118.5t-44 -172.5zM354 1215l78 92l190 -225l-28 -43z" />
<glyph unicode="&#xf3;" d="M154 498q12 113 62.5 201.5t130 149t184 96.5t202.5 34q80 0 179.5 -37t175.5 -101.5t121 -152.5t39 -194q-6 -125 -54.5 -222.5t-128.5 -163t-178 -101.5t-184 -36q-102 -2 -211 38t-187.5 109.5t-119.5 168t-31 211.5zM322 492q-4 -68 15.5 -140.5t63.5 -134 t113.5 -102.5t167.5 -45q55 -2 105.5 14t99.5 46t85 71t58.5 87t30.5 94t10 95q4 72 -16 140.5t-66.5 123t-119 90t-146.5 37.5q-49 4 -120.5 -17.5t-133 -67.5t-103.5 -118.5t-44 -172.5zM467 1094l193 229l82 -94l-244 -180z" />
<glyph unicode="&#xf4;" d="M154 498q12 113 62.5 201.5t130 149t184 96.5t202.5 34q80 0 179.5 -37t175.5 -101.5t121 -152.5t39 -194q-6 -125 -54.5 -222.5t-128.5 -163t-178 -101.5t-184 -36q-102 -2 -211 38t-187.5 109.5t-119.5 168t-31 211.5zM322 492q-4 -68 15.5 -140.5t63.5 -134 t113.5 -102.5t167.5 -45q55 -2 105.5 14t99.5 46t85 71t58.5 87t30.5 94t10 95q4 72 -16 140.5t-66.5 123t-119 90t-146.5 37.5q-49 4 -120.5 -17.5t-133 -67.5t-103.5 -118.5t-44 -172.5zM350 1057l168 305l248 -215l-64 -64l-174 185l-112 -242z" />
<glyph unicode="&#xf5;" d="M154 498q12 113 62.5 201.5t130 149t184 96.5t202.5 34q80 0 179.5 -37t175.5 -101.5t121 -152.5t39 -194q-6 -125 -54.5 -222.5t-128.5 -163t-178 -101.5t-184 -36q-102 -2 -211 38t-187.5 109.5t-119.5 168t-31 211.5zM309 1080q37 45 74 82q33 31 69.5 59.5t69.5 32.5 q33 2 55.5 -20.5t40 -51.5t33.5 -52.5t35 -19.5q16 0 27.5 30t17.5 67q8 43 12 98l64 -12q-14 -66 -33 -119q-16 -45 -37.5 -83t-44.5 -42q-37 -4 -54.5 13.5t-29.5 40t-25.5 43t-42.5 20.5q-33 2 -63.5 -18.5t-54.5 -47.5q-29 -31 -56 -72zM322 492q-4 -68 15.5 -140.5 t63.5 -134t113.5 -102.5t167.5 -45q55 -2 105.5 14t99.5 46t85 71t58.5 87t30.5 94t10 95q4 72 -16 140.5t-66.5 123t-119 90t-146.5 37.5q-49 4 -120.5 -17.5t-133 -67.5t-103.5 -118.5t-44 -172.5z" />
<glyph unicode="&#xf6;" d="M154 498q12 113 62.5 201.5t130 149t184 96.5t202.5 34q80 0 179.5 -37t175.5 -101.5t121 -152.5t39 -194q-6 -125 -54.5 -222.5t-128.5 -163t-178 -101.5t-184 -36q-102 -2 -211 38t-187.5 109.5t-119.5 168t-31 211.5zM322 492q-4 -68 15.5 -140.5t63.5 -134 t113.5 -102.5t167.5 -45q55 -2 105.5 14t99.5 46t85 71t58.5 87t30.5 94t10 95q4 72 -16 140.5t-66.5 123t-119 90t-146.5 37.5q-49 4 -120.5 -17.5t-133 -67.5t-103.5 -118.5t-44 -172.5zM392 1095q-5 25 7 45q20 25 46 26t46 -13q20 -16 23.5 -38t-8.5 -42 q-16 -20 -40 -22.5t-46 7.5q-23 12 -28 37zM629 1084q-4 22 12 42q18 16 40.5 15t33.5 -9q16 -12 21 -30.5t-7 -36.5q-14 -16 -35.5 -20.5t-42.5 7.5q-18 10 -22 32z" />
<glyph unicode="&#xf7;" horiz-adv-x="655" d="M0 664l545 34l-4 -110l-535 12zM146 329q-7 50 16 93q29 39 73.5 47t85.5 -23q35 -29 43 -78t-14 -92q-27 -39 -72 -47t-84 23q-41 27 -48 77zM180 1021q-6 42 14 83q25 33 64 41t74 -12q37 -29 42 -71t-18 -83q-23 -39 -63.5 -44t-71.5 15q-35 29 -41 71z" />
<glyph unicode="&#xf8;" d="M2 528q12 113 62.5 202t130 149.5t184 92.5t223.5 29q66 0 129.5 -15t122.5 -42l39 45l119 -88l-35 -37q72 -63 115 -148t36 -192q-6 -125 -53 -222t-124 -162.5t-175 -101.5t-205 -36q-94 -2 -178 20.5t-155 63.5l-68 -72l-72 58l62 71q-82 72 -125 170.5t-33 214.5z M170 522q-4 -68 15.5 -140.5t64.5 -133.5l524 606q-39 18 -84 30.5t-98 14.5q-70 4 -141.5 -17.5t-133 -67.5t-103.5 -119t-44 -173zM319 172q43 -31 95.5 -50.5t115.5 -21.5q76 -2 136.5 14.5t109.5 46t84 70.5t59.5 87.5t37 94.5t14.5 95q4 70 -17.5 137.5t-68.5 122.5z " />
<glyph unicode="&#xf9;" horiz-adv-x="1101" d="M2 659.5q0 141.5 2 315.5l170 -6q-2 -47 -7 -110.5t-10.5 -135.5t-5.5 -147.5t8.5 -146.5t28 -134.5t55 -110.5t90 -73.5t134.5 -24.5q76 0 139.5 27.5t110.5 79t74.5 126t31.5 173.5l6 464l160 -4l-14 -936l-150 4v107q-68 -57 -141.5 -94t-157.5 -41q-129 -6 -220 16.5 t-150.5 73.5t-91 133t-47 192.5t-15.5 252zM274 1202l78 92l190 -225l-28 -43z" />
<glyph unicode="&#xfa;" horiz-adv-x="1099" d="M2 659.5q0 141.5 2 315.5l170 -6q-2 -47 -7 -110.5t-10.5 -135.5t-5.5 -147.5t8.5 -146.5t28 -134.5t55 -110.5t90 -73.5t134.5 -24.5q76 0 139.5 27.5t110.5 79t74.5 126t31.5 173.5l6 464l160 -4l-14 -936l-150 4v107q-68 -57 -141.5 -94t-157.5 -41q-129 -6 -220 16.5 t-150.5 73.5t-91 133t-47 192.5t-15.5 252zM463 1053l193 229l82 -94l-244 -180z" />
<glyph unicode="&#xfb;" horiz-adv-x="1099" d="M2 659.5q0 141.5 2 315.5l170 -6q-2 -47 -7 -110.5t-10.5 -135.5t-5.5 -147.5t8.5 -146.5t28 -134.5t55 -110.5t90 -73.5t134.5 -24.5q76 0 139.5 27.5t110.5 79t74.5 126t31.5 173.5l6 464l160 -4l-14 -936l-150 4v107q-68 -57 -141.5 -94t-157.5 -41q-129 -6 -220 16.5 t-150.5 73.5t-91 133t-47 192.5t-15.5 252zM274 1020l168 305l248 -215l-64 -64l-174 185l-112 -242z" />
<glyph unicode="&#xfc;" horiz-adv-x="1099" d="M2 659.5q0 141.5 2 315.5l170 -6q-2 -47 -7 -110.5t-10.5 -135.5t-5.5 -147.5t8.5 -146.5t28 -134.5t55 -110.5t90 -73.5t134.5 -24.5q76 0 139.5 27.5t110.5 79t74.5 126t31.5 173.5l6 464l160 -4l-14 -936l-150 4v107q-68 -57 -141.5 -94t-157.5 -41q-129 -6 -220 16.5 t-150.5 73.5t-91 133t-47 192.5t-15.5 252zM376 1067q-5 25 7 45q20 25 46 26t46 -13q20 -16 23.5 -38t-8.5 -42q-16 -20 -40 -22.5t-46 7.5q-23 12 -28 37zM613 1056q-4 22 12 42q18 16 40.5 15t33.5 -9q16 -12 21 -30.5t-7 -36.5q-14 -16 -35.5 -20.5t-42.5 7.5 q-18 10 -22 32z" />
<glyph unicode="&#xfd;" horiz-adv-x="1120" d="M-4 -250l119 57q12 -35 24.5 -57t22.5 -35.5t22.5 -22.5t28.5 -18q39 -25 78 -16.5t73.5 41.5t66.5 82t56.5 105.5t44 112.5t29.5 101l-561 756l121 74l493 -692l228 747l157 -45l-348 -1014q-53 -127 -105 -206.5t-107.5 -121.5t-116 -51.5t-134.5 9.5q-23 4 -49 18 t-54 39t-51.5 58.5t-37.5 78.5zM518 1057l193 229l82 -94l-244 -180z" />
<glyph unicode="&#xfe;" horiz-adv-x="962" d="M0 1436h178l10 -355q59 4 131 4t145 -10t142.5 -34.5t125.5 -67.5t91 -107.5t41 -156.5q2 -90 -30.5 -157t-86 -114t-122 -76.5t-141 -47t-143.5 -24.5t-128 -9l8 -281h-135zM190 985l23 -637q37 0 90 5t109.5 18.5t113 36t100.5 60.5t70.5 91t24.5 127q-2 80 -32 134 t-77 88t-104 52.5t-115.5 24.5t-112 5t-90.5 -5z" />
<glyph unicode="&#xff;" horiz-adv-x="1120" d="M-4 -250l119 57q12 -35 24.5 -57t22.5 -35.5t22.5 -22.5t28.5 -18q39 -25 78 -16.5t73.5 41.5t66.5 82t56.5 105.5t44 112.5t29.5 101l-561 756l121 74l493 -692l228 747l157 -45l-348 -1014q-53 -127 -105 -206.5t-107.5 -121.5t-116 -51.5t-134.5 9.5q-23 4 -49 18 t-54 39t-51.5 58.5t-37.5 78.5zM322 1071q-5 25 7 45q20 25 46 26t46 -13q20 -16 23.5 -38t-8.5 -42q-16 -20 -40 -22.5t-46 7.5q-23 12 -28 37zM559 1060q-4 22 12 42q18 16 40.5 15t33.5 -9q16 -12 21 -30.5t-7 -36.5q-14 -16 -35.5 -20.5t-42.5 7.5q-18 10 -22 32z" />
<glyph unicode="&#x152;" horiz-adv-x="1581" d="M4 688q0 170 32 288t84 197.5t119.5 126t138.5 70t138.5 32.5t120.5 13l-8 -155q-4 0 -13 2q-6 0 -16 1t-20 1q-31 0 -77 -6.5t-97.5 -29t-101.5 -62.5t-91 -107.5t-66.5 -166.5t-25.5 -237q0 -92 21.5 -186t79 -172t156.5 -132t257 -67q0 -35 1 -55t3 -29.5t2 -11.5 t-4 -2q-47 -2 -111.5 7t-134 37t-139.5 77t-125 126t-89 185.5t-34 255.5zM629 0v1413l841 19v-179l-733 7l6 -490l605 35l2 -154l-598 -10l6 -535l678 31l4 -137h-811z" />
<glyph unicode="&#x153;" horiz-adv-x="1763" d="M7.5 407.5q-23.5 118.5 31.5 284.5q39 86 89 144.5t112.5 95.5t132 54.5t139.5 25.5q215 14 391 -56l-94 -143q-86 51 -277 41q-59 -6 -116.5 -22.5t-107.5 -48t-97 -86t-66 -132.5q-14 -72 -8 -112.5t21.5 -95t70 -114t130 -100.5t186 -46t250.5 55l108 -99 q-143 -70 -264 -71.5t-216 18.5t-183 68.5t-148.5 134.5t-84 204.5zM571.5 600q14.5 82 51 149.5t92 119t122 85t139.5 50t142 14.5q127 -4 226.5 -46t166 -115t99 -172t28.5 -218q12 -2 -21.5 -3t-96 -1h-146.5h-174h-177h-156.5h-113.5t-48 -2q10 -61 38.5 -111.5 t69.5 -87.5t88 -62.5t92 -33.5q29 -8 69 -11t94 0t120.5 17t146.5 45l31 -164q-59 -29 -135 -43t-152.5 -15t-145.5 9t-114 33q-55 25 -108.5 57.5t-98.5 77.5t-78.5 106.5t-48.5 141.5q-16 98 -1.5 180zM713 588l737 -25q-4 76 -32.5 133.5t-73 98.5t-100.5 66.5t-118 33.5 q-76 12 -149.5 -6.5t-132 -60.5t-94 -104t-37.5 -136z" />
<glyph unicode="&#x178;" horiz-adv-x="1269" d="M55 1339l97 70l419 -510l428 537l134 -107l-463 -538l55 -785l-178 -6l-25 795zM419 1466q-5 25 7 45q20 25 46 26t46 -13q20 -16 23.5 -38t-8.5 -42q-16 -20 -40 -22.5t-46 7.5q-23 12 -28 37zM656 1455q-4 22 12 42q18 16 40.5 15t33.5 -9q16 -12 21 -30.5t-7 -36.5 q-14 -16 -35.5 -20.5t-42.5 7.5q-18 10 -22 32z" />
<glyph unicode="&#x2c6;" horiz-adv-x="421" d="M0 1231l168 305l248 -215l-64 -64l-174 185l-112 -242z" />
<glyph unicode="&#x2dc;" horiz-adv-x="503" d="M2 1309q37 45 74 82q33 31 69.5 59.5t69.5 32.5q33 2 55.5 -20.5t40 -51.5t33.5 -52.5t35 -19.5q16 0 27.5 30t17.5 67q8 43 12 98l64 -12q-14 -66 -33 -119q-16 -45 -37.5 -83t-44.5 -42q-37 -4 -54.5 13.5t-29.5 40t-25.5 43t-42.5 20.5q-33 2 -63.5 -18.5t-54.5 -47.5 q-29 -31 -56 -72z" />
<glyph unicode="&#x2000;" horiz-adv-x="902" />
<glyph unicode="&#x2001;" horiz-adv-x="1804" />
<glyph unicode="&#x2002;" horiz-adv-x="902" />
<glyph unicode="&#x2003;" horiz-adv-x="1804" />
<glyph unicode="&#x2004;" horiz-adv-x="601" />
<glyph unicode="&#x2005;" horiz-adv-x="451" />
<glyph unicode="&#x2006;" horiz-adv-x="300" />
<glyph unicode="&#x2007;" horiz-adv-x="300" />
<glyph unicode="&#x2008;" horiz-adv-x="225" />
<glyph unicode="&#x2009;" horiz-adv-x="360" />
<glyph unicode="&#x200a;" horiz-adv-x="100" />
<glyph unicode="&#x2010;" horiz-adv-x="585" d="M0 766l475 39l-8 -131l-459 16z" />
<glyph unicode="&#x2011;" horiz-adv-x="585" d="M0 766l475 39l-8 -131l-459 16z" />
<glyph unicode="&#x2012;" horiz-adv-x="585" d="M0 766l475 39l-8 -131l-459 16z" />
<glyph unicode="&#x2013;" horiz-adv-x="841" d="M0 657l745 31l-8 -104l-731 14z" />
<glyph unicode="&#x2014;" horiz-adv-x="655" d="M0 664l545 34l-4 -110l-535 12z" />
<glyph unicode="&#x2018;" horiz-adv-x="239" d="M0 1526l129 6v-322h-68z" />
<glyph unicode="&#x2019;" horiz-adv-x="237" d="M4 1120v318l143 -8l-67 -310h-76z" />
<glyph unicode="&#x201a;" horiz-adv-x="225" d="M2 -106v307l123 -8l-57 -299h-66z" />
<glyph unicode="&#x201c;" horiz-adv-x="350" d="M0 1501l111 6v-276h-60zM137 1532l107 -25l-29 -225h-59z" />
<glyph unicode="&#x201d;" horiz-adv-x="346" d="M0 1501l109 6v-272h-58zM135 1532l105 -25l-29 -221h-57z" />
<glyph unicode="&#x201e;" horiz-adv-x="307" d="M2 164l92 4v-227h-49zM113 190l92 -22l-27 -184h-47z" />
<glyph unicode="&#x202f;" horiz-adv-x="360" />
<glyph unicode="&#x205f;" horiz-adv-x="451" />
<glyph unicode="&#x20ac;" horiz-adv-x="841" d="M0 803l160 4q18 127 64 208t104.5 126t123 60.5t121 12t97.5 -18.5t53 -30l-31 -110q-2 2 -29.5 16t-69.5 26.5t-92 12.5t-94.5 -27.5t-76 -93t-39.5 -182.5h104l-4 -53l-104 -6v-54l172 17l-4 -105l-162 4q10 -104 44 -163.5t78 -85t92 -31.5t89 0t68.5 13t27.5 9 l43 -164q-156 -23 -282 15q-53 14 -105.5 42.5t-94.5 77t-69.5 120t-33.5 169.5l-80 4l-4 62l81 8q0 2 3 53l-140 -8z" />
<glyph unicode="&#x2122;" horiz-adv-x="696" d="M2 1434l258 -2l-2 -25h-123l25 -272l-43 -2l-8 276l-105 2zM293 1133l33 -3l-9 232l109 -225l115 237l12 -239h47l-18 297h-37l-111 -238l-123 240h-18v-301z" />
<glyph unicode="&#x25fc;" horiz-adv-x="1034" d="M0 0v1034h1034v-1034h-1034z" />
</font>
</defs>
</svg>
